SplineFontDB: 3.0
FontName: psychosnake
FullName: psychosnake
FamilyName: psychosnake
Weight: Book
Copyright: Copyright (c) 2018, Joao
Version: 001.000
ItalicAngle: 0
UnderlinePosition: -353
UnderlineWidth: 51
Ascent: 900
Descent: 124
InvalidEm: 0
sfntRevision: 0x00010000
LayerCount: 2
Layer: 0 1 "Back" 1
Layer: 1 1 "Fore" 0
HasVMetrics: 1
XUID: [1021 715 863102700 13994]
StyleMap: 0x0000
FSType: 0
OS2Version: 4
OS2_WeightWidthSlopeOnly: 0
OS2_UseTypoMetrics: 0
CreationTime: 1531071785
ModificationTime: 1531192683
PfmFamily: 17
TTFWeight: 400
TTFWidth: 5
LineGap: 0
VLineGap: 0
Panose: 2 0 5 9 0 0 0 0 0 0
OS2TypoAscent: 900
OS2TypoAOffset: 0
OS2TypoDescent: -124
OS2TypoDOffset: 0
OS2TypoLinegap: 0
OS2WinAscent: 900
OS2WinAOffset: 0
OS2WinDescent: 124
OS2WinDOffset: 0
HheadAscent: 900
HheadAOffset: 0
HheadDescent: -124
HheadDOffset: 0
OS2SubXSize: 666
OS2SubYSize: 716
OS2SubXOff: 0
OS2SubYOff: 143
OS2SupXSize: 666
OS2SupYSize: 716
OS2SupXOff: 0
OS2SupYOff: 490
OS2StrikeYSize: 50
OS2StrikeYPos: 264
OS2CapHeight: 900
OS2XHeight: 124
OS2Vendor: 'PfEd'
OS2CodePages: 00000001.00000000
OS2UnicodeRanges: 00000000.00000000.00000000.00000000
DEI: 91125
ShortTable: cvt  2
  33
  633
EndShort
ShortTable: maxp 16
  1
  0
  102
  152
  28
  0
  0
  2
  0
  1
  1
  0
  64
  0
  0
  0
EndShort
LangName: 1033 "" "" "Regular" "FontForge : psychosnake : 8-7-2018"
GaspTable: 1 65535 2 0
Encoding: UnicodeFull
UnicodeInterp: none
NameList: AGL For New Fonts
DisplaySize: -36
AntiAlias: 1
FitToEm: 0
WinInfo: 9324 36 11
AnchorClass2: "char_top""" 
BeginChars: 1114112 127

StartChar: u10000
Encoding: 65536 65536 0
Width: 1024
Flags: W
LayerCount: 2
Fore
SplineSet
68 34 m 1,0,-1
 271 34 l 1,1,-1
 271 648 l 1,2,-1
 68 648 l 1,3,-1
 68 34 l 1,0,-1
34 0 m 1,4,-1
 34 682 l 1,5,-1
 305 682 l 1,6,-1
 305 0 l 1,7,-1
 34 0 l 1,4,-1
EndSplineSet
Validated: 1
EndChar

StartChar: uni0000
Encoding: 0 0 1
AltUni2: 000000.ffffffff.0
Width: 1024
Flags: W
LayerCount: 2
Fore
SplineSet
147 -102 m 5,0,-1
 86 -102 l 5,1,-1
 86 -42 l 5,2,-1
 147 -42 l 5,3,-1
 147 -102 l 5,0,-1
269 -102 m 5,4,-1
 208 -102 l 5,5,-1
 208 -42 l 5,6,-1
 269 -42 l 5,7,-1
 269 -102 l 5,4,-1
390 -102 m 5,8,-1
 330 -102 l 5,9,-1
 330 -42 l 5,10,-1
 390 -42 l 5,11,-1
 390 -102 l 5,8,-1
512 -102 m 5,12,-1
 451 -102 l 5,13,-1
 451 -42 l 5,14,-1
 512 -42 l 5,15,-1
 512 -102 l 5,12,-1
634 -102 m 5,16,-1
 573 -102 l 5,17,-1
 573 -42 l 5,18,-1
 634 -42 l 5,19,-1
 634 -102 l 5,16,-1
755 -102 m 5,20,-1
 694 -102 l 5,21,-1
 694 -42 l 5,22,-1
 755 -42 l 5,23,-1
 755 -102 l 5,20,-1
877 -102 m 5,24,-1
 816 -102 l 5,25,-1
 816 -42 l 5,26,-1
 877 -42 l 5,27,-1
 877 -102 l 5,24,-1
998 -102 m 5,28,-1
 938 -102 l 5,29,-1
 938 -42 l 5,30,-1
 998 -42 l 5,31,-1
 998 -102 l 5,28,-1
998 19 m 5,32,-1
 938 19 l 5,33,-1
 938 80 l 5,34,-1
 998 80 l 5,35,-1
 998 19 l 5,32,-1
86 80 m 5,36,-1
 26 80 l 5,37,-1
 26 141 l 5,38,-1
 86 141 l 5,39,-1
 86 80 l 5,36,-1
998 141 m 5,40,-1
 938 141 l 5,41,-1
 938 202 l 5,42,-1
 998 202 l 5,43,-1
 998 141 l 5,40,-1
86 202 m 5,44,-1
 26 202 l 5,45,-1
 26 262 l 5,46,-1
 86 262 l 5,47,-1
 86 202 l 5,44,-1
998 262 m 5,48,-1
 938 262 l 5,49,-1
 938 323 l 5,50,-1
 998 323 l 5,51,-1
 998 262 l 5,48,-1
998 506 m 5,52,-1
 938 506 l 5,53,-1
 938 566 l 5,54,-1
 998 566 l 5,55,-1
 998 506 l 5,52,-1
998 627 m 5,56,-1
 938 627 l 5,57,-1
 938 688 l 5,58,-1
 998 688 l 5,59,-1
 998 627 l 5,56,-1
86 688 m 5,60,-1
 26 688 l 5,61,-1
 26 749 l 5,62,-1
 86 749 l 5,63,-1
 86 688 l 5,60,-1
998 749 m 5,64,-1
 938 749 l 5,65,-1
 938 810 l 5,66,-1
 998 810 l 5,67,-1
 998 749 l 5,64,-1
86 810 m 5,68,-1
 26 810 l 5,69,-1
 26 870 l 5,70,-1
 86 870 l 5,71,-1
 86 810 l 5,68,-1
208 810 m 5,72,-1
 147 810 l 5,73,-1
 147 870 l 5,74,-1
 208 870 l 5,75,-1
 208 810 l 5,72,-1
330 810 m 5,76,-1
 269 810 l 5,77,-1
 269 870 l 5,78,-1
 330 870 l 5,79,-1
 330 810 l 5,76,-1
451 810 m 5,80,-1
 390 810 l 5,81,-1
 390 870 l 5,82,-1
 451 870 l 5,83,-1
 451 810 l 5,80,-1
573 810 m 5,84,-1
 512 810 l 5,85,-1
 512 870 l 5,86,-1
 573 870 l 5,87,-1
 573 810 l 5,84,-1
694 810 m 5,88,-1
 634 810 l 5,89,-1
 634 870 l 5,90,-1
 694 870 l 5,91,-1
 694 810 l 5,88,-1
816 810 m 5,92,-1
 755 810 l 5,93,-1
 755 870 l 5,94,-1
 816 870 l 5,95,-1
 816 810 l 5,92,-1
86 384 m 5,96,-1
 86 445 l 5,97,-1
 26 445 l 5,98,-1
 26 506 l 5,99,-1
 86 506 l 5,100,-1
 86 566 l 5,101,-1
 147 566 l 5,102,-1
 147 506 l 5,103,-1
 208 506 l 5,104,-1
 208 445 l 5,105,-1
 269 445 l 5,106,-1
 269 566 l 5,107,-1
 330 566 l 5,108,-1
 330 323 l 5,109,-1
 269 323 l 5,110,-1
 269 384 l 5,111,-1
 208 384 l 5,112,-1
 208 445 l 5,113,-1
 147 445 l 5,114,-1
 147 323 l 5,115,-1
 26 323 l 5,116,-1
 26 384 l 5,117,-1
 86 384 l 5,96,-1
573 384 m 5,118,-1
 573 323 l 5,119,-1
 451 323 l 5,120,-1
 451 384 l 5,121,-1
 573 384 l 5,118,-1
573 384 m 5,122,-1
 573 566 l 5,123,-1
 634 566 l 5,124,-1
 634 384 l 5,125,-1
 573 384 l 5,122,-1
451 384 m 5,126,-1
 390 384 l 5,127,-1
 390 566 l 5,128,-1
 451 566 l 5,129,-1
 451 384 l 5,126,-1
86 -42 m 5,130,-1
 26 -42 l 5,131,-1
 26 19 l 5,132,-1
 86 19 l 5,133,-1
 86 -42 l 5,130,-1
938 384 m 5,134,-1
 938 323 l 5,135,-1
 694 323 l 5,136,-1
 694 566 l 5,137,-1
 755 566 l 5,138,-1
 755 384 l 5,139,-1
 938 384 l 5,134,-1
938 384 m 5,140,-1
 938 445 l 5,141,-1
 998 445 l 5,142,-1
 998 384 l 5,143,-1
 938 384 l 5,140,-1
938 810 m 5,144,-1
 877 810 l 5,145,-1
 877 870 l 5,146,-1
 938 870 l 5,147,-1
 938 810 l 5,144,-1
86 566 m 5,148,-1
 26 566 l 5,149,-1
 26 627 l 5,150,-1
 86 627 l 5,151,-1
 86 566 l 5,148,-1
EndSplineSet
Validated: 2053
EndChar

StartChar: exclam
Encoding: 33 33 3
Width: 512
Flags: W
LayerCount: 2
Fore
SplineSet
256 128 m 1,0,-1
 320 128 l 1,1,-1
 320 0 l 1,2,-1
 256 0 l 1,3,-1
 256 128 l 1,0,-1
256 640 m 1,4,-1
 320 640 l 1,5,-1
 320 192 l 1,6,-1
 256 192 l 1,7,-1
 256 640 l 1,4,-1
EndSplineSet
Validated: 1
EndChar

StartChar: quotedbl
Encoding: 34 34 4
Width: 512
Flags: W
LayerCount: 2
Fore
SplineSet
128 768 m 1,0,-1
 192 768 l 1,1,-1
 192 512 l 1,2,-1
 128 512 l 1,3,-1
 128 768 l 1,0,-1
384 768 m 1,4,-1
 448 768 l 1,5,-1
 448 512 l 1,6,-1
 384 512 l 1,7,-1
 384 768 l 1,4,-1
EndSplineSet
Validated: 1
EndChar

StartChar: numbersign
Encoding: 35 35 5
Width: 512
Flags: W
LayerCount: 2
Fore
SplineSet
448 192 m 1,0,-1
 320 192 l 1,1,-1
 320 0 l 1,2,-1
 256 0 l 1,3,-1
 256 192 l 1,4,-1
 128 192 l 1,5,-1
 128 0 l 1,6,-1
 64 0 l 1,7,-1
 64 256 l 1,8,-1
 128 256 l 1,9,-1
 128 384 l 1,10,-1
 64 384 l 1,11,-1
 64 448 l 1,12,-1
 192 448 l 1,13,-1
 192 640 l 1,14,-1
 256 640 l 1,15,-1
 256 448 l 1,16,-1
 384 448 l 1,17,-1
 384 640 l 1,18,-1
 448 640 l 1,19,-1
 448 384 l 1,20,-1
 384 384 l 1,21,-1
 384 256 l 1,22,-1
 448 256 l 1,23,-1
 448 192 l 1,0,-1
192 256 m 1,24,-1
 320 256 l 1,25,-1
 320 384 l 1,26,-1
 192 384 l 1,27,-1
 192 256 l 1,24,-1
EndSplineSet
Validated: 1
EndChar

StartChar: dollar
Encoding: 36 36 6
Width: 512
Flags: W
LayerCount: 2
Fore
SplineSet
512 448 m 1,0,-1
 448 448 l 1,1,-1
 448 512 l 1,2,-1
 512 512 l 1,3,-1
 512 448 l 1,0,-1
320 64 m 1,4,-1
 320 0 l 1,5,-1
 256 0 l 1,6,-1
 256 64 l 1,7,-1
 128 64 l 1,8,-1
 128 128 l 1,9,-1
 256 128 l 1,10,-1
 256 320 l 1,11,-1
 128 320 l 1,12,-1
 128 384 l 1,13,-1
 64 384 l 1,14,-1
 64 512 l 1,15,-1
 128 512 l 1,16,-1
 128 576 l 1,17,-1
 256 576 l 1,18,-1
 256 640 l 1,19,-1
 320 640 l 1,20,-1
 320 576 l 1,21,-1
 448 576 l 1,22,-1
 448 512 l 1,23,-1
 320 512 l 1,24,-1
 320 320 l 1,25,-1
 448 320 l 1,26,-1
 448 256 l 1,27,-1
 512 256 l 1,28,-1
 512 128 l 1,29,-1
 448 128 l 1,30,-1
 448 256 l 1,31,-1
 320 256 l 1,32,-1
 320 128 l 1,33,-1
 448 128 l 1,34,-1
 448 64 l 1,35,-1
 320 64 l 1,4,-1
128 512 m 1,36,-1
 128 384 l 1,37,-1
 256 384 l 1,38,-1
 256 512 l 1,39,-1
 128 512 l 1,36,-1
128 128 m 1,40,-1
 64 128 l 1,41,-1
 64 192 l 1,42,-1
 128 192 l 1,43,-1
 128 128 l 1,40,-1
EndSplineSet
Validated: 5
EndChar

StartChar: percent
Encoding: 37 37 7
Width: 512
Flags: W
LayerCount: 2
Fore
SplineSet
448 192 m 1,0,-1
 512 192 l 1,1,-1
 512 64 l 1,2,-1
 448 64 l 1,3,-1
 448 192 l 1,0,-1
448 192 m 1,4,-1
 320 192 l 1,5,-1
 320 256 l 1,6,-1
 448 256 l 1,7,-1
 448 192 l 1,4,-1
448 64 m 1,8,-1
 448 0 l 1,9,-1
 320 0 l 1,10,-1
 320 64 l 1,11,-1
 448 64 l 1,8,-1
320 192 m 1,12,-1
 320 64 l 1,13,-1
 256 64 l 1,14,-1
 256 192 l 1,15,-1
 320 192 l 1,12,-1
256 192 m 1,16,-1
 192 192 l 1,17,-1
 192 64 l 1,18,-1
 128 64 l 1,19,-1
 128 0 l 1,20,-1
 64 0 l 1,21,-1
 64 64 l 1,22,-1
 128 64 l 1,23,-1
 128 192 l 1,24,-1
 192 192 l 1,25,-1
 192 256 l 1,26,-1
 256 256 l 1,27,-1
 256 192 l 1,16,-1
256 256 m 1,28,-1
 256 384 l 1,29,-1
 320 384 l 1,30,-1
 320 256 l 1,31,-1
 256 256 l 1,28,-1
320 384 m 1,32,-1
 320 448 l 1,33,-1
 384 448 l 1,34,-1
 384 384 l 1,35,-1
 320 384 l 1,32,-1
448 576 m 1,36,-1
 448 448 l 1,37,-1
 384 448 l 1,38,-1
 384 576 l 1,39,-1
 448 576 l 1,36,-1
448 576 m 1,40,-1
 448 640 l 1,41,-1
 512 640 l 1,42,-1
 512 576 l 1,43,-1
 448 576 l 1,40,-1
256 384 m 1,44,-1
 128 384 l 1,45,-1
 128 448 l 1,46,-1
 256 448 l 1,47,-1
 256 384 l 1,44,-1
128 448 m 1,48,-1
 64 448 l 1,49,-1
 64 576 l 1,50,-1
 128 576 l 1,51,-1
 128 448 l 1,48,-1
256 448 m 1,52,-1
 256 576 l 1,53,-1
 320 576 l 1,54,-1
 320 448 l 1,55,-1
 256 448 l 1,52,-1
256 576 m 1,56,-1
 128 576 l 1,57,-1
 128 640 l 1,58,-1
 256 640 l 1,59,-1
 256 576 l 1,56,-1
EndSplineSet
Validated: 5
EndChar

StartChar: ampersand
Encoding: 38 38 8
Width: 512
Flags: W
LayerCount: 2
Fore
SplineSet
512 0 m 1,0,-1
 448 0 l 1,1,-1
 448 64 l 1,2,-1
 512 64 l 1,3,-1
 512 0 l 1,0,-1
128 64 m 1,4,-1
 320 64 l 1,5,-1
 320 0 l 1,6,-1
 128 0 l 1,7,-1
 128 64 l 1,4,-1
128 64 m 1,8,-1
 64 64 l 1,9,-1
 64 256 l 1,10,-1
 128 256 l 1,11,-1
 128 64 l 1,8,-1
128 256 m 1,12,-1
 128 320 l 1,13,-1
 192 320 l 1,14,-1
 192 256 l 1,15,-1
 128 256 l 1,12,-1
448 192 m 1,16,-1
 448 64 l 1,17,-1
 320 64 l 1,18,-1
 320 128 l 1,19,-1
 384 128 l 1,20,-1
 384 192 l 1,21,-1
 448 192 l 1,16,-1
448 192 m 1,22,-1
 448 320 l 1,23,-1
 512 320 l 1,24,-1
 512 192 l 1,25,-1
 448 192 l 1,22,-1
384 448 m 1,26,-1
 384 384 l 1,27,-1
 320 384 l 1,28,-1
 320 256 l 1,29,-1
 384 256 l 1,30,-1
 384 192 l 1,31,-1
 320 192 l 1,32,-1
 320 256 l 1,33,-1
 256 256 l 1,34,-1
 256 320 l 1,35,-1
 192 320 l 1,36,-1
 192 448 l 1,37,-1
 256 448 l 1,38,-1
 256 384 l 1,39,-1
 320 384 l 1,40,-1
 320 448 l 1,41,-1
 384 448 l 1,26,-1
384 448 m 1,42,-1
 384 576 l 1,43,-1
 448 576 l 1,44,-1
 448 448 l 1,45,-1
 384 448 l 1,42,-1
384 576 m 1,46,-1
 192 576 l 1,47,-1
 192 448 l 1,48,-1
 128 448 l 1,49,-1
 128 576 l 1,50,-1
 192 576 l 1,51,-1
 192 640 l 1,52,-1
 384 640 l 1,53,-1
 384 576 l 1,46,-1
EndSplineSet
Validated: 5
EndChar

StartChar: quotesingle
Encoding: 39 39 9
Width: 512
Flags: W
LayerCount: 2
Fore
SplineSet
256 768 m 1,0,-1
 320 768 l 1,1,-1
 320 512 l 1,2,-1
 256 512 l 1,3,-1
 256 768 l 1,0,-1
EndSplineSet
Validated: 1
EndChar

StartChar: parenleft
Encoding: 40 40 10
Width: 512
Flags: W
LayerCount: 2
Fore
SplineSet
384 -64 m 1,0,-1
 320 -64 l 1,1,-1
 320 0 l 1,2,-1
 384 0 l 1,3,-1
 384 -64 l 1,0,-1
320 640 m 1,4,-1
 320 512 l 1,5,-1
 256 512 l 1,6,-1
 256 128 l 1,7,-1
 320 128 l 1,8,-1
 320 0 l 1,9,-1
 256 0 l 1,10,-1
 256 128 l 1,11,-1
 192 128 l 1,12,-1
 192 512 l 1,13,-1
 256 512 l 1,14,-1
 256 640 l 1,15,-1
 320 640 l 1,4,-1
320 640 m 1,16,-1
 320 704 l 1,17,-1
 384 704 l 1,18,-1
 384 640 l 1,19,-1
 320 640 l 1,16,-1
EndSplineSet
Validated: 5
EndChar

StartChar: parenright
Encoding: 41 41 11
Width: 512
Flags: W
LayerCount: 2
Fore
SplineSet
192 0 m 1,0,-1
 192 -64 l 1,1,-1
 128 -64 l 1,2,-1
 128 0 l 1,3,-1
 192 0 l 1,0,-1
192 0 m 1,4,-1
 192 128 l 1,5,-1
 256 128 l 1,6,-1
 256 0 l 1,7,-1
 192 0 l 1,4,-1
256 128 m 1,8,-1
 256 512 l 1,9,-1
 320 512 l 1,10,-1
 320 128 l 1,11,-1
 256 128 l 1,8,-1
256 512 m 1,12,-1
 192 512 l 1,13,-1
 192 640 l 1,14,-1
 256 640 l 1,15,-1
 256 512 l 1,12,-1
192 640 m 1,16,-1
 128 640 l 1,17,-1
 128 704 l 1,18,-1
 192 704 l 1,19,-1
 192 640 l 1,16,-1
EndSplineSet
Validated: 5
EndChar

StartChar: asterisk
Encoding: 42 42 12
Width: 512
Flags: W
LayerCount: 2
Fore
SplineSet
512 128 m 1,0,-1
 448 128 l 1,1,-1
 448 192 l 1,2,-1
 512 192 l 1,3,-1
 512 128 l 1,0,-1
128 192 m 1,4,-1
 128 128 l 1,5,-1
 64 128 l 1,6,-1
 64 192 l 1,7,-1
 128 192 l 1,4,-1
128 192 m 1,8,-1
 128 256 l 1,9,-1
 192 256 l 1,10,-1
 192 192 l 1,11,-1
 128 192 l 1,8,-1
448 384 m 1,12,-1
 448 320 l 1,13,-1
 384 320 l 1,14,-1
 384 256 l 1,15,-1
 448 256 l 1,16,-1
 448 192 l 1,17,-1
 384 192 l 1,18,-1
 384 256 l 1,19,-1
 320 256 l 1,20,-1
 320 64 l 1,21,-1
 256 64 l 1,22,-1
 256 256 l 1,23,-1
 192 256 l 1,24,-1
 192 320 l 1,25,-1
 256 320 l 1,26,-1
 256 512 l 1,27,-1
 320 512 l 1,28,-1
 320 320 l 1,29,-1
 384 320 l 1,30,-1
 384 384 l 1,31,-1
 448 384 l 1,12,-1
448 384 m 1,32,-1
 448 448 l 1,33,-1
 512 448 l 1,34,-1
 512 384 l 1,35,-1
 448 384 l 1,32,-1
128 384 m 1,36,-1
 192 384 l 1,37,-1
 192 320 l 1,38,-1
 128 320 l 1,39,-1
 128 384 l 1,36,-1
128 384 m 1,40,-1
 64 384 l 1,41,-1
 64 448 l 1,42,-1
 128 448 l 1,43,-1
 128 384 l 1,40,-1
EndSplineSet
Validated: 5
EndChar

StartChar: plus
Encoding: 43 43 13
Width: 512
Flags: W
LayerCount: 2
Fore
SplineSet
512 256 m 1,0,-1
 320 256 l 1,1,-1
 320 64 l 1,2,-1
 256 64 l 1,3,-1
 256 256 l 1,4,-1
 64 256 l 1,5,-1
 64 320 l 1,6,-1
 256 320 l 1,7,-1
 256 512 l 1,8,-1
 320 512 l 1,9,-1
 320 320 l 1,10,-1
 512 320 l 1,11,-1
 512 256 l 1,0,-1
EndSplineSet
Validated: 1
EndChar

StartChar: comma
Encoding: 44 44 14
Width: 512
Flags: W
LayerCount: 2
Fore
SplineSet
256 -64 m 1,0,-1
 256 -128 l 1,1,-1
 192 -128 l 1,2,-1
 192 -64 l 1,3,-1
 256 -64 l 1,0,-1
256 -64 m 1,4,-1
 256 64 l 1,5,-1
 192 64 l 1,6,-1
 192 128 l 1,7,-1
 320 128 l 1,8,-1
 320 -64 l 1,9,-1
 256 -64 l 1,4,-1
EndSplineSet
Validated: 5
EndChar

StartChar: hyphen
Encoding: 45 45 15
Width: 512
Flags: W
LayerCount: 2
Fore
SplineSet
384 256 m 1,0,-1
 128 256 l 1,1,-1
 128 320 l 1,2,-1
 384 320 l 1,3,-1
 384 256 l 1,0,-1
EndSplineSet
Validated: 1
EndChar

StartChar: period
Encoding: 46 46 16
Width: 512
Flags: W
LayerCount: 2
Fore
SplineSet
192 128 m 1,0,-1
 320 128 l 1,1,-1
 320 0 l 1,2,-1
 192 0 l 1,3,-1
 192 128 l 1,0,-1
EndSplineSet
Validated: 1
EndChar

StartChar: slash
Encoding: 47 47 17
Width: 512
Flags: W
LayerCount: 2
Fore
SplineSet
128 128 m 1,0,-1
 128 0 l 1,1,-1
 64 0 l 1,2,-1
 64 128 l 1,3,-1
 128 128 l 1,0,-1
128 128 m 1,4,-1
 128 192 l 1,5,-1
 192 192 l 1,6,-1
 192 128 l 1,7,-1
 128 128 l 1,4,-1
192 192 m 1,8,-1
 192 320 l 1,9,-1
 256 320 l 1,10,-1
 256 192 l 1,11,-1
 192 192 l 1,8,-1
256 320 m 1,12,-1
 256 448 l 1,13,-1
 320 448 l 1,14,-1
 320 320 l 1,15,-1
 256 320 l 1,12,-1
320 448 m 1,16,-1
 320 512 l 1,17,-1
 384 512 l 1,18,-1
 384 448 l 1,19,-1
 320 448 l 1,16,-1
384 512 m 1,20,-1
 384 640 l 1,21,-1
 448 640 l 1,22,-1
 448 512 l 1,23,-1
 384 512 l 1,20,-1
EndSplineSet
Validated: 5
EndChar

StartChar: zero
Encoding: 48 48 18
Width: 512
Flags: W
LayerCount: 2
Fore
SplineSet
192 64 m 1,0,-1
 320 64 l 1,1,-1
 320 0 l 1,2,-1
 192 0 l 1,3,-1
 192 64 l 1,0,-1
192 64 m 1,4,-1
 128 64 l 1,5,-1
 128 128 l 1,6,-1
 192 128 l 1,7,-1
 192 64 l 1,4,-1
320 64 m 1,8,-1
 320 128 l 1,9,-1
 384 128 l 1,10,-1
 384 64 l 1,11,-1
 320 64 l 1,8,-1
128 128 m 1,12,-1
 64 128 l 1,13,-1
 64 512 l 1,14,-1
 128 512 l 1,15,-1
 128 256 l 1,16,-1
 192 256 l 1,17,-1
 192 192 l 1,18,-1
 128 192 l 1,19,-1
 128 128 l 1,12,-1
192 256 m 1,20,-1
 192 320 l 1,21,-1
 256 320 l 1,22,-1
 256 256 l 1,23,-1
 192 256 l 1,20,-1
256 320 m 1,24,-1
 256 384 l 1,25,-1
 320 384 l 1,26,-1
 320 320 l 1,27,-1
 256 320 l 1,24,-1
320 384 m 1,28,-1
 320 448 l 1,29,-1
 384 448 l 1,30,-1
 384 512 l 1,31,-1
 448 512 l 1,32,-1
 448 128 l 1,33,-1
 384 128 l 1,34,-1
 384 384 l 1,35,-1
 320 384 l 1,28,-1
128 512 m 1,36,-1
 128 576 l 1,37,-1
 192 576 l 1,38,-1
 192 512 l 1,39,-1
 128 512 l 1,36,-1
384 512 m 1,40,-1
 320 512 l 1,41,-1
 320 576 l 1,42,-1
 384 576 l 1,43,-1
 384 512 l 1,40,-1
320 576 m 1,44,-1
 192 576 l 1,45,-1
 192 640 l 1,46,-1
 320 640 l 1,47,-1
 320 576 l 1,44,-1
EndSplineSet
Validated: 5
EndChar

StartChar: one
Encoding: 49 49 19
Width: 512
Flags: W
LayerCount: 2
Fore
SplineSet
448 0 m 1,0,-1
 128 0 l 1,1,-1
 128 64 l 1,2,-1
 256 64 l 1,3,-1
 256 512 l 1,4,-1
 192 512 l 1,5,-1
 192 448 l 1,6,-1
 128 448 l 1,7,-1
 128 512 l 1,8,-1
 192 512 l 1,9,-1
 192 576 l 1,10,-1
 256 576 l 1,11,-1
 256 640 l 1,12,-1
 320 640 l 1,13,-1
 320 64 l 1,14,-1
 448 64 l 1,15,-1
 448 0 l 1,0,-1
EndSplineSet
Validated: 5
EndChar

StartChar: two
Encoding: 50 50 20
Width: 512
Flags: W
LayerCount: 2
Fore
SplineSet
448 0 m 1,0,-1
 64 0 l 1,1,-1
 64 192 l 1,2,-1
 128 192 l 1,3,-1
 128 64 l 1,4,-1
 448 64 l 1,5,-1
 448 0 l 1,0,-1
128 576 m 1,6,-1
 128 448 l 1,7,-1
 64 448 l 1,8,-1
 64 576 l 1,9,-1
 128 576 l 1,6,-1
128 576 m 1,10,-1
 128 640 l 1,11,-1
 384 640 l 1,12,-1
 384 576 l 1,13,-1
 448 576 l 1,14,-1
 448 384 l 1,15,-1
 384 384 l 1,16,-1
 384 320 l 1,17,-1
 256 320 l 1,18,-1
 256 256 l 1,19,-1
 192 256 l 1,20,-1
 192 192 l 1,21,-1
 128 192 l 1,22,-1
 128 256 l 1,23,-1
 192 256 l 1,24,-1
 192 320 l 1,25,-1
 256 320 l 1,26,-1
 256 384 l 1,27,-1
 384 384 l 1,28,-1
 384 576 l 1,29,-1
 128 576 l 1,10,-1
EndSplineSet
Validated: 5
EndChar

StartChar: three
Encoding: 51 51 21
Width: 512
Flags: W
LayerCount: 2
Fore
SplineSet
128 64 m 1,0,-1
 384 64 l 1,1,-1
 384 0 l 1,2,-1
 128 0 l 1,3,-1
 128 64 l 1,0,-1
128 64 m 1,4,-1
 64 64 l 1,5,-1
 64 192 l 1,6,-1
 128 192 l 1,7,-1
 128 64 l 1,4,-1
384 64 m 1,8,-1
 384 320 l 1,9,-1
 448 320 l 1,10,-1
 448 64 l 1,11,-1
 384 64 l 1,8,-1
384 320 m 1,12,-1
 192 320 l 1,13,-1
 192 384 l 1,14,-1
 384 384 l 1,15,-1
 384 320 l 1,12,-1
384 384 m 1,16,-1
 384 576 l 1,17,-1
 448 576 l 1,18,-1
 448 384 l 1,19,-1
 384 384 l 1,16,-1
384 576 m 1,20,-1
 128 576 l 1,21,-1
 128 448 l 1,22,-1
 64 448 l 1,23,-1
 64 576 l 1,24,-1
 128 576 l 1,25,-1
 128 640 l 1,26,-1
 384 640 l 1,27,-1
 384 576 l 1,20,-1
EndSplineSet
Validated: 5
EndChar

StartChar: four
Encoding: 52 52 22
Width: 512
Flags: W
LayerCount: 2
Fore
SplineSet
448 192 m 1,0,-1
 384 192 l 1,1,-1
 384 0 l 1,2,-1
 320 0 l 1,3,-1
 320 192 l 1,4,-1
 64 192 l 1,5,-1
 64 384 l 1,6,-1
 128 384 l 1,7,-1
 128 448 l 1,8,-1
 192 448 l 1,9,-1
 192 512 l 1,10,-1
 256 512 l 1,11,-1
 256 576 l 1,12,-1
 320 576 l 1,13,-1
 320 640 l 1,14,-1
 384 640 l 1,15,-1
 384 256 l 1,16,-1
 448 256 l 1,17,-1
 448 192 l 1,0,-1
128 256 m 1,18,-1
 320 256 l 1,19,-1
 320 512 l 1,20,-1
 256 512 l 1,21,-1
 256 448 l 1,22,-1
 192 448 l 1,23,-1
 192 384 l 1,24,-1
 128 384 l 1,25,-1
 128 256 l 1,18,-1
EndSplineSet
Validated: 5
EndChar

StartChar: five
Encoding: 53 53 23
Width: 512
Flags: W
LayerCount: 2
Fore
SplineSet
448 576 m 1,0,-1
 128 576 l 1,1,-1
 128 384 l 1,2,-1
 384 384 l 1,3,-1
 384 320 l 1,4,-1
 448 320 l 1,5,-1
 448 64 l 1,6,-1
 384 64 l 1,7,-1
 384 0 l 1,8,-1
 128 0 l 1,9,-1
 128 64 l 1,10,-1
 384 64 l 1,11,-1
 384 320 l 1,12,-1
 64 320 l 1,13,-1
 64 640 l 1,14,-1
 448 640 l 1,15,-1
 448 576 l 1,0,-1
128 64 m 1,16,-1
 64 64 l 1,17,-1
 64 128 l 1,18,-1
 128 128 l 1,19,-1
 128 64 l 1,16,-1
EndSplineSet
Validated: 5
EndChar

StartChar: six
Encoding: 54 54 24
Width: 512
Flags: W
LayerCount: 2
Fore
SplineSet
384 64 m 1,0,-1
 384 320 l 1,1,-1
 448 320 l 1,2,-1
 448 64 l 1,3,-1
 384 64 l 1,0,-1
384 64 m 1,4,-1
 384 0 l 1,5,-1
 128 0 l 1,6,-1
 128 64 l 1,7,-1
 384 64 l 1,4,-1
384 320 m 1,8,-1
 128 320 l 1,9,-1
 128 64 l 1,10,-1
 64 64 l 1,11,-1
 64 512 l 1,12,-1
 128 512 l 1,13,-1
 128 384 l 1,14,-1
 384 384 l 1,15,-1
 384 320 l 1,8,-1
192 576 m 1,16,-1
 192 512 l 1,17,-1
 128 512 l 1,18,-1
 128 576 l 1,19,-1
 192 576 l 1,16,-1
192 576 m 1,20,-1
 192 640 l 1,21,-1
 384 640 l 1,22,-1
 384 576 l 1,23,-1
 192 576 l 1,20,-1
EndSplineSet
Validated: 5
EndChar

StartChar: seven
Encoding: 55 55 25
Width: 512
Flags: W
LayerCount: 2
Fore
SplineSet
320 256 m 1,0,-1
 320 0 l 1,1,-1
 256 0 l 1,2,-1
 256 256 l 1,3,-1
 320 256 l 1,0,-1
320 256 m 1,4,-1
 320 448 l 1,5,-1
 384 448 l 1,6,-1
 384 256 l 1,7,-1
 320 256 l 1,4,-1
384 448 m 1,8,-1
 384 576 l 1,9,-1
 64 576 l 1,10,-1
 64 640 l 1,11,-1
 448 640 l 1,12,-1
 448 448 l 1,13,-1
 384 448 l 1,8,-1
EndSplineSet
Validated: 5
EndChar

StartChar: eight
Encoding: 56 56 26
Width: 512
Flags: W
LayerCount: 2
Fore
SplineSet
128 64 m 1,0,-1
 384 64 l 1,1,-1
 384 0 l 1,2,-1
 128 0 l 1,3,-1
 128 64 l 1,0,-1
128 64 m 1,4,-1
 64 64 l 1,5,-1
 64 320 l 1,6,-1
 128 320 l 1,7,-1
 128 64 l 1,4,-1
384 64 m 1,8,-1
 384 320 l 1,9,-1
 448 320 l 1,10,-1
 448 64 l 1,11,-1
 384 64 l 1,8,-1
128 320 m 1,12,-1
 128 384 l 1,13,-1
 384 384 l 1,14,-1
 384 320 l 1,15,-1
 128 320 l 1,12,-1
128 384 m 1,16,-1
 64 384 l 1,17,-1
 64 576 l 1,18,-1
 128 576 l 1,19,-1
 128 384 l 1,16,-1
384 384 m 1,20,-1
 384 576 l 1,21,-1
 448 576 l 1,22,-1
 448 384 l 1,23,-1
 384 384 l 1,20,-1
384 576 m 1,24,-1
 128 576 l 1,25,-1
 128 640 l 1,26,-1
 384 640 l 1,27,-1
 384 576 l 1,24,-1
EndSplineSet
Validated: 5
EndChar

StartChar: nine
Encoding: 57 57 27
Width: 512
Flags: W
LayerCount: 2
Fore
SplineSet
320 64 m 1,0,-1
 320 0 l 1,1,-1
 128 0 l 1,2,-1
 128 64 l 1,3,-1
 320 64 l 1,0,-1
320 64 m 1,4,-1
 320 128 l 1,5,-1
 384 128 l 1,6,-1
 384 64 l 1,7,-1
 320 64 l 1,4,-1
384 128 m 1,8,-1
 384 320 l 1,9,-1
 128 320 l 1,10,-1
 128 384 l 1,11,-1
 384 384 l 1,12,-1
 384 576 l 1,13,-1
 448 576 l 1,14,-1
 448 128 l 1,15,-1
 384 128 l 1,8,-1
128 384 m 1,16,-1
 64 384 l 1,17,-1
 64 576 l 1,18,-1
 128 576 l 1,19,-1
 128 384 l 1,16,-1
384 576 m 1,20,-1
 128 576 l 1,21,-1
 128 640 l 1,22,-1
 384 640 l 1,23,-1
 384 576 l 1,20,-1
EndSplineSet
Validated: 5
EndChar

StartChar: colon
Encoding: 58 58 28
Width: 512
Flags: W
LayerCount: 2
Fore
SplineSet
192 192 m 1,0,-1
 320 192 l 1,1,-1
 320 64 l 1,2,-1
 192 64 l 1,3,-1
 192 192 l 1,0,-1
192 512 m 1,4,-1
 320 512 l 1,5,-1
 320 384 l 1,6,-1
 192 384 l 1,7,-1
 192 512 l 1,4,-1
EndSplineSet
Validated: 1
EndChar

StartChar: semicolon
Encoding: 59 59 29
Width: 512
Flags: W
LayerCount: 2
Fore
SplineSet
192 512 m 1,0,-1
 320 512 l 1,1,-1
 320 384 l 1,2,-1
 192 384 l 1,3,-1
 192 512 l 1,0,-1
256 0 m 1,4,-1
 256 -64 l 1,5,-1
 192 -64 l 1,6,-1
 192 0 l 1,7,-1
 256 0 l 1,4,-1
256 0 m 1,8,-1
 256 128 l 1,9,-1
 192 128 l 1,10,-1
 192 192 l 1,11,-1
 320 192 l 1,12,-1
 320 0 l 1,13,-1
 256 0 l 1,8,-1
EndSplineSet
Validated: 5
EndChar

StartChar: less
Encoding: 60 60 30
Width: 512
Flags: W
LayerCount: 2
Fore
SplineSet
448 0 m 1,0,-1
 384 0 l 1,1,-1
 384 64 l 1,2,-1
 448 64 l 1,3,-1
 448 0 l 1,0,-1
384 512 m 1,4,-1
 384 448 l 1,5,-1
 320 448 l 1,6,-1
 320 384 l 1,7,-1
 256 384 l 1,8,-1
 256 320 l 1,9,-1
 192 320 l 1,10,-1
 192 256 l 1,11,-1
 256 256 l 1,12,-1
 256 192 l 1,13,-1
 320 192 l 1,14,-1
 320 128 l 1,15,-1
 384 128 l 1,16,-1
 384 64 l 1,17,-1
 320 64 l 1,18,-1
 320 128 l 1,19,-1
 256 128 l 1,20,-1
 256 192 l 1,21,-1
 192 192 l 1,22,-1
 192 256 l 1,23,-1
 128 256 l 1,24,-1
 128 320 l 1,25,-1
 192 320 l 1,26,-1
 192 384 l 1,27,-1
 256 384 l 1,28,-1
 256 448 l 1,29,-1
 320 448 l 1,30,-1
 320 512 l 1,31,-1
 384 512 l 1,4,-1
384 512 m 1,32,-1
 384 576 l 1,33,-1
 448 576 l 1,34,-1
 448 512 l 1,35,-1
 384 512 l 1,32,-1
EndSplineSet
Validated: 5
EndChar

StartChar: equal
Encoding: 61 61 31
Width: 512
Flags: W
LayerCount: 2
Fore
SplineSet
448 128 m 1,0,-1
 64 128 l 1,1,-1
 64 192 l 1,2,-1
 448 192 l 1,3,-1
 448 128 l 1,0,-1
448 384 m 1,4,-1
 64 384 l 1,5,-1
 64 448 l 1,6,-1
 448 448 l 1,7,-1
 448 384 l 1,4,-1
EndSplineSet
Validated: 1
EndChar

StartChar: greater
Encoding: 62 62 32
Width: 512
Flags: W
LayerCount: 2
Fore
SplineSet
256 192 m 1,0,-1
 256 128 l 1,1,-1
 192 128 l 1,2,-1
 192 64 l 1,3,-1
 128 64 l 1,4,-1
 128 0 l 1,5,-1
 64 0 l 1,6,-1
 64 64 l 1,7,-1
 128 64 l 1,8,-1
 128 128 l 1,9,-1
 192 128 l 1,10,-1
 192 192 l 1,11,-1
 256 192 l 1,0,-1
256 192 m 1,12,-1
 256 256 l 1,13,-1
 320 256 l 1,14,-1
 320 192 l 1,15,-1
 256 192 l 1,12,-1
320 256 m 1,16,-1
 320 320 l 1,17,-1
 384 320 l 1,18,-1
 384 256 l 1,19,-1
 320 256 l 1,16,-1
320 320 m 1,20,-1
 256 320 l 1,21,-1
 256 384 l 1,22,-1
 320 384 l 1,23,-1
 320 320 l 1,20,-1
256 384 m 1,24,-1
 192 384 l 1,25,-1
 192 448 l 1,26,-1
 256 448 l 1,27,-1
 256 384 l 1,24,-1
192 448 m 1,28,-1
 128 448 l 1,29,-1
 128 512 l 1,30,-1
 192 512 l 1,31,-1
 192 448 l 1,28,-1
128 512 m 1,32,-1
 64 512 l 1,33,-1
 64 576 l 1,34,-1
 128 576 l 1,35,-1
 128 512 l 1,32,-1
EndSplineSet
Validated: 5
EndChar

StartChar: question
Encoding: 63 63 33
Width: 512
Flags: W
LayerCount: 2
Fore
SplineSet
256 128 m 1,0,-1
 320 128 l 1,1,-1
 320 0 l 1,2,-1
 256 0 l 1,3,-1
 256 128 l 1,0,-1
320 320 m 1,4,-1
 320 192 l 1,5,-1
 256 192 l 1,6,-1
 256 320 l 1,7,-1
 320 320 l 1,4,-1
320 320 m 1,8,-1
 320 384 l 1,9,-1
 384 384 l 1,10,-1
 384 320 l 1,11,-1
 320 320 l 1,8,-1
384 384 m 1,12,-1
 384 576 l 1,13,-1
 448 576 l 1,14,-1
 448 384 l 1,15,-1
 384 384 l 1,12,-1
384 576 m 1,16,-1
 128 576 l 1,17,-1
 128 448 l 1,18,-1
 64 448 l 1,19,-1
 64 576 l 1,20,-1
 128 576 l 1,21,-1
 128 640 l 1,22,-1
 384 640 l 1,23,-1
 384 576 l 1,16,-1
EndSplineSet
Validated: 5
EndChar

StartChar: at
Encoding: 64 64 34
Width: 512
Flags: W
LayerCount: 2
Fore
SplineSet
448 0 m 1,0,-1
 192 0 l 1,1,-1
 192 64 l 1,2,-1
 448 64 l 1,3,-1
 448 0 l 1,0,-1
256 192 m 1,4,-1
 384 192 l 1,5,-1
 384 384 l 1,6,-1
 320 384 l 1,7,-1
 320 448 l 1,8,-1
 384 448 l 1,9,-1
 384 576 l 1,10,-1
 448 576 l 1,11,-1
 448 128 l 1,12,-1
 256 128 l 1,13,-1
 256 192 l 1,4,-1
256 192 m 1,14,-1
 192 192 l 1,15,-1
 192 448 l 1,16,-1
 256 448 l 1,17,-1
 256 192 l 1,14,-1
320 448 m 1,18,-1
 256 448 l 1,19,-1
 256 512 l 1,20,-1
 320 512 l 1,21,-1
 320 448 l 1,18,-1
384 576 m 1,22,-1
 192 576 l 1,23,-1
 192 512 l 1,24,-1
 128 512 l 1,25,-1
 128 128 l 1,26,-1
 192 128 l 1,27,-1
 192 64 l 1,28,-1
 128 64 l 1,29,-1
 128 128 l 1,30,-1
 64 128 l 1,31,-1
 64 512 l 1,32,-1
 128 512 l 1,33,-1
 128 576 l 1,34,-1
 192 576 l 1,35,-1
 192 640 l 1,36,-1
 384 640 l 1,37,-1
 384 576 l 1,22,-1
EndSplineSet
Validated: 5
EndChar

StartChar: A
Encoding: 65 65 35
Width: 512
Flags: W
LayerCount: 2
Fore
SplineSet
128 448 m 1,0,-1
 128 320 l 1,1,-1
 384 320 l 1,2,-1
 384 448 l 1,3,-1
 448 448 l 1,4,-1
 448 0 l 1,5,-1
 384 0 l 1,6,-1
 384 256 l 1,7,-1
 128 256 l 1,8,-1
 128 0 l 1,9,-1
 64 0 l 1,10,-1
 64 448 l 1,11,-1
 128 448 l 1,0,-1
128 448 m 1,12,-1
 128 576 l 1,13,-1
 192 576 l 1,14,-1
 192 448 l 1,15,-1
 128 448 l 1,12,-1
384 448 m 1,16,-1
 320 448 l 1,17,-1
 320 576 l 1,18,-1
 384 576 l 1,19,-1
 384 448 l 1,16,-1
320 576 m 1,20,-1
 192 576 l 1,21,-1
 192 640 l 1,22,-1
 320 640 l 1,23,-1
 320 576 l 1,20,-1
EndSplineSet
Validated: 5
EndChar

StartChar: B
Encoding: 66 66 36
Width: 512
Flags: W
LayerCount: 2
Fore
SplineSet
64 640 m 1,0,-1
 384 640 l 1,1,-1
 384 576 l 1,2,-1
 448 576 l 1,3,-1
 448 384 l 1,4,-1
 384 384 l 1,5,-1
 384 576 l 1,6,-1
 128 576 l 1,7,-1
 128 384 l 1,8,-1
 384 384 l 1,9,-1
 384 320 l 1,10,-1
 448 320 l 1,11,-1
 448 64 l 1,12,-1
 384 64 l 1,13,-1
 384 320 l 1,14,-1
 128 320 l 1,15,-1
 128 64 l 1,16,-1
 384 64 l 1,17,-1
 384 0 l 1,18,-1
 64 0 l 1,19,-1
 64 640 l 1,0,-1
EndSplineSet
Validated: 5
EndChar

StartChar: C
Encoding: 67 67 37
Width: 512
Flags: W
LayerCount: 2
Fore
SplineSet
384 64 m 1,0,-1
 384 0 l 1,1,-1
 128 0 l 1,2,-1
 128 64 l 1,3,-1
 384 64 l 1,0,-1
384 64 m 1,4,-1
 384 192 l 1,5,-1
 448 192 l 1,6,-1
 448 64 l 1,7,-1
 384 64 l 1,4,-1
128 64 m 1,8,-1
 64 64 l 1,9,-1
 64 576 l 1,10,-1
 128 576 l 1,11,-1
 128 64 l 1,8,-1
384 576 m 1,12,-1
 448 576 l 1,13,-1
 448 448 l 1,14,-1
 384 448 l 1,15,-1
 384 576 l 1,12,-1
384 576 m 1,16,-1
 128 576 l 1,17,-1
 128 640 l 1,18,-1
 384 640 l 1,19,-1
 384 576 l 1,16,-1
EndSplineSet
Validated: 5
EndChar

StartChar: D
Encoding: 68 68 38
Width: 512
Flags: W
LayerCount: 2
Fore
SplineSet
64 640 m 1,0,-1
 320 640 l 1,1,-1
 320 576 l 1,2,-1
 384 576 l 1,3,-1
 384 512 l 1,4,-1
 448 512 l 1,5,-1
 448 128 l 1,6,-1
 384 128 l 1,7,-1
 384 64 l 1,8,-1
 320 64 l 1,9,-1
 320 128 l 1,10,-1
 384 128 l 1,11,-1
 384 512 l 1,12,-1
 320 512 l 1,13,-1
 320 576 l 1,14,-1
 128 576 l 1,15,-1
 128 64 l 1,16,-1
 320 64 l 1,17,-1
 320 0 l 1,18,-1
 64 0 l 1,19,-1
 64 640 l 1,0,-1
EndSplineSet
Validated: 5
EndChar

StartChar: E
Encoding: 69 69 39
Width: 512
Flags: W
LayerCount: 2
Fore
SplineSet
448 0 m 1,0,-1
 64 0 l 1,1,-1
 64 640 l 1,2,-1
 448 640 l 1,3,-1
 448 576 l 1,4,-1
 128 576 l 1,5,-1
 128 384 l 1,6,-1
 384 384 l 1,7,-1
 384 320 l 1,8,-1
 128 320 l 1,9,-1
 128 64 l 1,10,-1
 448 64 l 1,11,-1
 448 0 l 1,0,-1
EndSplineSet
Validated: 1
EndChar

StartChar: F
Encoding: 70 70 40
Width: 512
Flags: W
LayerCount: 2
Fore
SplineSet
384 320 m 1,0,-1
 128 320 l 1,1,-1
 128 0 l 1,2,-1
 64 0 l 1,3,-1
 64 640 l 1,4,-1
 448 640 l 1,5,-1
 448 576 l 1,6,-1
 128 576 l 1,7,-1
 128 384 l 1,8,-1
 384 384 l 1,9,-1
 384 320 l 1,0,-1
EndSplineSet
Validated: 1
EndChar

StartChar: G
Encoding: 71 71 41
Width: 512
Flags: W
LayerCount: 2
Fore
SplineSet
320 64 m 1,0,-1
 320 0 l 1,1,-1
 128 0 l 1,2,-1
 128 64 l 1,3,-1
 320 64 l 1,0,-1
320 64 m 1,4,-1
 320 128 l 1,5,-1
 384 128 l 1,6,-1
 384 256 l 1,7,-1
 256 256 l 1,8,-1
 256 320 l 1,9,-1
 448 320 l 1,10,-1
 448 0 l 1,11,-1
 384 0 l 1,12,-1
 384 64 l 1,13,-1
 320 64 l 1,4,-1
128 64 m 1,14,-1
 64 64 l 1,15,-1
 64 576 l 1,16,-1
 128 576 l 1,17,-1
 128 64 l 1,14,-1
384 576 m 1,18,-1
 448 576 l 1,19,-1
 448 448 l 1,20,-1
 384 448 l 1,21,-1
 384 576 l 1,18,-1
384 576 m 1,22,-1
 128 576 l 1,23,-1
 128 640 l 1,24,-1
 384 640 l 1,25,-1
 384 576 l 1,22,-1
EndSplineSet
Validated: 5
EndChar

StartChar: H
Encoding: 72 72 42
Width: 512
Flags: W
LayerCount: 2
Fore
SplineSet
64 640 m 1,0,-1
 128 640 l 1,1,-1
 128 384 l 1,2,-1
 384 384 l 1,3,-1
 384 640 l 1,4,-1
 448 640 l 1,5,-1
 448 0 l 1,6,-1
 384 0 l 1,7,-1
 384 320 l 1,8,-1
 128 320 l 1,9,-1
 128 0 l 1,10,-1
 64 0 l 1,11,-1
 64 640 l 1,0,-1
EndSplineSet
Validated: 1
EndChar

StartChar: I
Encoding: 73 73 43
Width: 512
Flags: W
LayerCount: 2
Fore
SplineSet
448 0 m 1,0,-1
 128 0 l 1,1,-1
 128 64 l 1,2,-1
 256 64 l 1,3,-1
 256 576 l 1,4,-1
 128 576 l 1,5,-1
 128 640 l 1,6,-1
 448 640 l 1,7,-1
 448 576 l 1,8,-1
 320 576 l 1,9,-1
 320 64 l 1,10,-1
 448 64 l 1,11,-1
 448 0 l 1,0,-1
EndSplineSet
Validated: 1
EndChar

StartChar: J
Encoding: 74 74 44
Width: 512
Flags: W
LayerCount: 2
Fore
SplineSet
512 576 m 1,0,-1
 384 576 l 1,1,-1
 384 64 l 1,2,-1
 320 64 l 1,3,-1
 320 0 l 1,4,-1
 128 0 l 1,5,-1
 128 64 l 1,6,-1
 320 64 l 1,7,-1
 320 576 l 1,8,-1
 192 576 l 1,9,-1
 192 640 l 1,10,-1
 512 640 l 1,11,-1
 512 576 l 1,0,-1
128 64 m 1,12,-1
 64 64 l 1,13,-1
 64 192 l 1,14,-1
 128 192 l 1,15,-1
 128 64 l 1,12,-1
EndSplineSet
Validated: 5
EndChar

StartChar: K
Encoding: 75 75 45
Width: 512
Flags: W
LayerCount: 2
Fore
SplineSet
448 0 m 1,0,-1
 384 0 l 1,1,-1
 384 64 l 1,2,-1
 448 64 l 1,3,-1
 448 0 l 1,0,-1
384 576 m 1,4,-1
 384 512 l 1,5,-1
 320 512 l 1,6,-1
 320 448 l 1,7,-1
 256 448 l 1,8,-1
 256 384 l 1,9,-1
 192 384 l 1,10,-1
 192 256 l 1,11,-1
 256 256 l 1,12,-1
 256 192 l 1,13,-1
 320 192 l 1,14,-1
 320 128 l 1,15,-1
 384 128 l 1,16,-1
 384 64 l 1,17,-1
 320 64 l 1,18,-1
 320 128 l 1,19,-1
 256 128 l 1,20,-1
 256 192 l 1,21,-1
 192 192 l 1,22,-1
 192 256 l 1,23,-1
 128 256 l 1,24,-1
 128 0 l 1,25,-1
 64 0 l 1,26,-1
 64 640 l 1,27,-1
 128 640 l 1,28,-1
 128 384 l 1,29,-1
 192 384 l 1,30,-1
 192 448 l 1,31,-1
 256 448 l 1,32,-1
 256 512 l 1,33,-1
 320 512 l 1,34,-1
 320 576 l 1,35,-1
 384 576 l 1,4,-1
384 576 m 1,36,-1
 384 640 l 1,37,-1
 448 640 l 1,38,-1
 448 576 l 1,39,-1
 384 576 l 1,36,-1
EndSplineSet
Validated: 5
EndChar

StartChar: L
Encoding: 76 76 46
Width: 512
Flags: W
LayerCount: 2
Fore
SplineSet
448 0 m 1,0,-1
 64 0 l 1,1,-1
 64 640 l 1,2,-1
 128 640 l 1,3,-1
 128 64 l 1,4,-1
 448 64 l 1,5,-1
 448 0 l 1,0,-1
EndSplineSet
Validated: 1
EndChar

StartChar: M
Encoding: 77 77 47
Width: 512
Flags: W
LayerCount: 2
Fore
SplineSet
64 640 m 1,0,-1
 128 640 l 1,1,-1
 128 512 l 1,2,-1
 192 512 l 1,3,-1
 192 384 l 1,4,-1
 320 384 l 1,5,-1
 320 256 l 1,6,-1
 192 256 l 1,7,-1
 192 384 l 1,8,-1
 128 384 l 1,9,-1
 128 0 l 1,10,-1
 64 0 l 1,11,-1
 64 640 l 1,0,-1
320 384 m 1,12,-1
 320 512 l 1,13,-1
 384 512 l 1,14,-1
 384 640 l 1,15,-1
 448 640 l 1,16,-1
 448 0 l 1,17,-1
 384 0 l 1,18,-1
 384 384 l 1,19,-1
 320 384 l 1,12,-1
EndSplineSet
Validated: 5
EndChar

StartChar: N
Encoding: 78 78 48
Width: 512
Flags: W
LayerCount: 2
Fore
SplineSet
64 640 m 1,0,-1
 128 640 l 1,1,-1
 128 576 l 1,2,-1
 192 576 l 1,3,-1
 192 448 l 1,4,-1
 256 448 l 1,5,-1
 256 320 l 1,6,-1
 320 320 l 1,7,-1
 320 192 l 1,8,-1
 384 192 l 1,9,-1
 384 640 l 1,10,-1
 448 640 l 1,11,-1
 448 0 l 1,12,-1
 384 0 l 1,13,-1
 384 64 l 1,14,-1
 320 64 l 1,15,-1
 320 192 l 1,16,-1
 256 192 l 1,17,-1
 256 320 l 1,18,-1
 192 320 l 1,19,-1
 192 448 l 1,20,-1
 128 448 l 1,21,-1
 128 0 l 1,22,-1
 64 0 l 1,23,-1
 64 640 l 1,0,-1
EndSplineSet
Validated: 5
EndChar

StartChar: O
Encoding: 79 79 49
Width: 512
Flags: W
LayerCount: 2
Fore
SplineSet
128 64 m 1,0,-1
 384 64 l 1,1,-1
 384 0 l 1,2,-1
 128 0 l 1,3,-1
 128 64 l 1,0,-1
128 64 m 1,4,-1
 64 64 l 1,5,-1
 64 576 l 1,6,-1
 128 576 l 1,7,-1
 128 64 l 1,4,-1
384 64 m 1,8,-1
 384 576 l 1,9,-1
 448 576 l 1,10,-1
 448 64 l 1,11,-1
 384 64 l 1,8,-1
384 576 m 1,12,-1
 128 576 l 1,13,-1
 128 640 l 1,14,-1
 384 640 l 1,15,-1
 384 576 l 1,12,-1
EndSplineSet
Validated: 5
EndChar

StartChar: P
Encoding: 80 80 50
Width: 512
Flags: W
LayerCount: 2
Fore
SplineSet
64 640 m 1,0,-1
 384 640 l 1,1,-1
 384 576 l 1,2,-1
 448 576 l 1,3,-1
 448 384 l 1,4,-1
 384 384 l 1,5,-1
 384 576 l 1,6,-1
 128 576 l 1,7,-1
 128 384 l 1,8,-1
 384 384 l 1,9,-1
 384 320 l 1,10,-1
 128 320 l 1,11,-1
 128 0 l 1,12,-1
 64 0 l 1,13,-1
 64 640 l 1,0,-1
EndSplineSet
Validated: 5
EndChar

StartChar: Q
Encoding: 81 81 51
Width: 512
Flags: W
LayerCount: 2
Fore
SplineSet
512 -64 m 1,0,-1
 384 -64 l 1,1,-1
 384 0 l 1,2,-1
 512 0 l 1,3,-1
 512 -64 l 1,0,-1
320 128 m 1,4,-1
 384 128 l 1,5,-1
 384 576 l 1,6,-1
 448 576 l 1,7,-1
 448 64 l 1,8,-1
 384 64 l 1,9,-1
 384 0 l 1,10,-1
 128 0 l 1,11,-1
 128 64 l 1,12,-1
 64 64 l 1,13,-1
 64 576 l 1,14,-1
 128 576 l 1,15,-1
 128 128 l 1,16,-1
 192 128 l 1,17,-1
 192 64 l 1,18,-1
 320 64 l 1,19,-1
 320 128 l 1,4,-1
320 128 m 1,20,-1
 192 128 l 1,21,-1
 192 192 l 1,22,-1
 320 192 l 1,23,-1
 320 128 l 1,20,-1
384 576 m 1,24,-1
 128 576 l 1,25,-1
 128 640 l 1,26,-1
 384 640 l 1,27,-1
 384 576 l 1,24,-1
EndSplineSet
Validated: 5
EndChar

StartChar: R
Encoding: 82 82 52
Width: 512
Flags: W
LayerCount: 2
Fore
SplineSet
64 640 m 1,0,-1
 384 640 l 1,1,-1
 384 576 l 1,2,-1
 448 576 l 1,3,-1
 448 384 l 1,4,-1
 384 384 l 1,5,-1
 384 576 l 1,6,-1
 128 576 l 1,7,-1
 128 384 l 1,8,-1
 384 384 l 1,9,-1
 384 320 l 1,10,-1
 320 320 l 1,11,-1
 320 256 l 1,12,-1
 384 256 l 1,13,-1
 384 128 l 1,14,-1
 448 128 l 1,15,-1
 448 0 l 1,16,-1
 384 0 l 1,17,-1
 384 128 l 1,18,-1
 320 128 l 1,19,-1
 320 256 l 1,20,-1
 256 256 l 1,21,-1
 256 320 l 1,22,-1
 128 320 l 1,23,-1
 128 0 l 1,24,-1
 64 0 l 1,25,-1
 64 640 l 1,0,-1
EndSplineSet
Validated: 5
EndChar

StartChar: S
Encoding: 83 83 53
Width: 512
Flags: W
LayerCount: 2
Fore
SplineSet
128 64 m 1,0,-1
 384 64 l 1,1,-1
 384 0 l 1,2,-1
 128 0 l 1,3,-1
 128 64 l 1,0,-1
128 64 m 1,4,-1
 64 64 l 1,5,-1
 64 192 l 1,6,-1
 128 192 l 1,7,-1
 128 64 l 1,4,-1
384 64 m 1,8,-1
 384 256 l 1,9,-1
 448 256 l 1,10,-1
 448 64 l 1,11,-1
 384 64 l 1,8,-1
384 256 m 1,12,-1
 256 256 l 1,13,-1
 256 320 l 1,14,-1
 384 320 l 1,15,-1
 384 256 l 1,12,-1
256 320 m 1,16,-1
 128 320 l 1,17,-1
 128 384 l 1,18,-1
 256 384 l 1,19,-1
 256 320 l 1,16,-1
128 384 m 1,20,-1
 64 384 l 1,21,-1
 64 576 l 1,22,-1
 128 576 l 1,23,-1
 128 384 l 1,20,-1
384 576 m 1,24,-1
 448 576 l 1,25,-1
 448 448 l 1,26,-1
 384 448 l 1,27,-1
 384 576 l 1,24,-1
384 576 m 1,28,-1
 128 576 l 1,29,-1
 128 640 l 1,30,-1
 384 640 l 1,31,-1
 384 576 l 1,28,-1
EndSplineSet
Validated: 5
EndChar

StartChar: T
Encoding: 84 84 54
Width: 512
Flags: W
LayerCount: 2
Fore
SplineSet
512 576 m 1,0,-1
 320 576 l 1,1,-1
 320 0 l 1,2,-1
 256 0 l 1,3,-1
 256 576 l 1,4,-1
 64 576 l 1,5,-1
 64 640 l 1,6,-1
 512 640 l 1,7,-1
 512 576 l 1,0,-1
EndSplineSet
Validated: 1
EndChar

StartChar: U
Encoding: 85 85 55
Width: 512
Flags: W
LayerCount: 2
Fore
SplineSet
384 64 m 1,0,-1
 384 0 l 1,1,-1
 128 0 l 1,2,-1
 128 64 l 1,3,-1
 384 64 l 1,0,-1
384 64 m 1,4,-1
 384 640 l 1,5,-1
 448 640 l 1,6,-1
 448 64 l 1,7,-1
 384 64 l 1,4,-1
128 64 m 1,8,-1
 64 64 l 1,9,-1
 64 640 l 1,10,-1
 128 640 l 1,11,-1
 128 64 l 1,8,-1
EndSplineSet
Validated: 5
EndChar

StartChar: V
Encoding: 86 86 56
Width: 512
Flags: W
LayerCount: 2
Fore
SplineSet
256 128 m 1,0,-1
 320 128 l 1,1,-1
 320 0 l 1,2,-1
 256 0 l 1,3,-1
 256 128 l 1,0,-1
256 128 m 1,4,-1
 192 128 l 1,5,-1
 192 256 l 1,6,-1
 256 256 l 1,7,-1
 256 128 l 1,4,-1
320 128 m 1,8,-1
 320 256 l 1,9,-1
 384 256 l 1,10,-1
 384 128 l 1,11,-1
 320 128 l 1,8,-1
192 256 m 1,12,-1
 128 256 l 1,13,-1
 128 448 l 1,14,-1
 192 448 l 1,15,-1
 192 256 l 1,12,-1
128 448 m 1,16,-1
 64 448 l 1,17,-1
 64 640 l 1,18,-1
 128 640 l 1,19,-1
 128 448 l 1,16,-1
384 256 m 1,20,-1
 384 448 l 1,21,-1
 448 448 l 1,22,-1
 448 256 l 1,23,-1
 384 256 l 1,20,-1
448 448 m 1,24,-1
 448 640 l 1,25,-1
 512 640 l 1,26,-1
 512 448 l 1,27,-1
 448 448 l 1,24,-1
EndSplineSet
Validated: 5
EndChar

StartChar: W
Encoding: 87 87 57
Width: 512
Flags: W
LayerCount: 2
Fore
SplineSet
64 640 m 1,0,-1
 128 640 l 1,1,-1
 128 256 l 1,2,-1
 192 256 l 1,3,-1
 192 128 l 1,4,-1
 128 128 l 1,5,-1
 128 0 l 1,6,-1
 64 0 l 1,7,-1
 64 640 l 1,0,-1
384 128 m 1,8,-1
 320 128 l 1,9,-1
 320 256 l 1,10,-1
 384 256 l 1,11,-1
 384 640 l 1,12,-1
 448 640 l 1,13,-1
 448 0 l 1,14,-1
 384 0 l 1,15,-1
 384 128 l 1,8,-1
192 256 m 1,16,-1
 192 384 l 1,17,-1
 320 384 l 1,18,-1
 320 256 l 1,19,-1
 192 256 l 1,16,-1
EndSplineSet
Validated: 5
EndChar

StartChar: X
Encoding: 88 88 58
Width: 512
Flags: W
LayerCount: 2
Fore
SplineSet
128 128 m 1,0,-1
 128 0 l 1,1,-1
 64 0 l 1,2,-1
 64 128 l 1,3,-1
 128 128 l 1,0,-1
128 128 m 1,4,-1
 128 256 l 1,5,-1
 192 256 l 1,6,-1
 192 128 l 1,7,-1
 128 128 l 1,4,-1
384 128 m 1,8,-1
 448 128 l 1,9,-1
 448 0 l 1,10,-1
 384 0 l 1,11,-1
 384 128 l 1,8,-1
384 128 m 1,12,-1
 320 128 l 1,13,-1
 320 256 l 1,14,-1
 384 256 l 1,15,-1
 384 128 l 1,12,-1
192 256 m 1,16,-1
 192 384 l 1,17,-1
 320 384 l 1,18,-1
 320 256 l 1,19,-1
 192 256 l 1,16,-1
192 384 m 1,20,-1
 128 384 l 1,21,-1
 128 512 l 1,22,-1
 192 512 l 1,23,-1
 192 384 l 1,20,-1
128 512 m 1,24,-1
 64 512 l 1,25,-1
 64 640 l 1,26,-1
 128 640 l 1,27,-1
 128 512 l 1,24,-1
320 384 m 1,28,-1
 320 512 l 1,29,-1
 384 512 l 1,30,-1
 384 384 l 1,31,-1
 320 384 l 1,28,-1
384 512 m 1,32,-1
 384 640 l 1,33,-1
 448 640 l 1,34,-1
 448 512 l 1,35,-1
 384 512 l 1,32,-1
EndSplineSet
Validated: 5
EndChar

StartChar: Y
Encoding: 89 89 59
Width: 512
Flags: W
LayerCount: 2
Fore
SplineSet
256 320 m 1,0,-1
 320 320 l 1,1,-1
 320 0 l 1,2,-1
 256 0 l 1,3,-1
 256 320 l 1,0,-1
256 320 m 1,4,-1
 192 320 l 1,5,-1
 192 384 l 1,6,-1
 256 384 l 1,7,-1
 256 320 l 1,4,-1
320 320 m 1,8,-1
 320 384 l 1,9,-1
 384 384 l 1,10,-1
 384 320 l 1,11,-1
 320 320 l 1,8,-1
192 384 m 1,12,-1
 128 384 l 1,13,-1
 128 512 l 1,14,-1
 192 512 l 1,15,-1
 192 384 l 1,12,-1
128 512 m 1,16,-1
 64 512 l 1,17,-1
 64 640 l 1,18,-1
 128 640 l 1,19,-1
 128 512 l 1,16,-1
384 384 m 1,20,-1
 384 512 l 1,21,-1
 448 512 l 1,22,-1
 448 384 l 1,23,-1
 384 384 l 1,20,-1
448 512 m 1,24,-1
 448 640 l 1,25,-1
 512 640 l 1,26,-1
 512 512 l 1,27,-1
 448 512 l 1,24,-1
EndSplineSet
Validated: 5
EndChar

StartChar: Z
Encoding: 90 90 60
Width: 512
Flags: W
LayerCount: 2
Fore
SplineSet
448 0 m 1,0,-1
 64 0 l 1,1,-1
 64 192 l 1,2,-1
 128 192 l 1,3,-1
 128 64 l 1,4,-1
 448 64 l 1,5,-1
 448 0 l 1,0,-1
384 448 m 1,6,-1
 384 384 l 1,7,-1
 320 384 l 1,8,-1
 320 320 l 1,9,-1
 256 320 l 1,10,-1
 256 256 l 1,11,-1
 192 256 l 1,12,-1
 192 192 l 1,13,-1
 128 192 l 1,14,-1
 128 256 l 1,15,-1
 192 256 l 1,16,-1
 192 320 l 1,17,-1
 256 320 l 1,18,-1
 256 384 l 1,19,-1
 320 384 l 1,20,-1
 320 448 l 1,21,-1
 384 448 l 1,6,-1
384 448 m 1,22,-1
 384 576 l 1,23,-1
 64 576 l 1,24,-1
 64 640 l 1,25,-1
 448 640 l 1,26,-1
 448 448 l 1,27,-1
 384 448 l 1,22,-1
EndSplineSet
Validated: 5
EndChar

StartChar: bracketleft
Encoding: 91 91 61
Width: 512
Flags: W
LayerCount: 2
Fore
SplineSet
448 -64 m 1,0,-1
 256 -64 l 1,1,-1
 256 704 l 1,2,-1
 448 704 l 1,3,-1
 448 640 l 1,4,-1
 320 640 l 1,5,-1
 320 0 l 1,6,-1
 448 0 l 1,7,-1
 448 -64 l 1,0,-1
EndSplineSet
Validated: 1
EndChar

StartChar: backslash
Encoding: 92 92 62
Width: 512
Flags: W
LayerCount: 2
Fore
SplineSet
384 128 m 1,0,-1
 448 128 l 1,1,-1
 448 0 l 1,2,-1
 384 0 l 1,3,-1
 384 128 l 1,0,-1
384 128 m 1,4,-1
 320 128 l 1,5,-1
 320 192 l 1,6,-1
 384 192 l 1,7,-1
 384 128 l 1,4,-1
320 192 m 1,8,-1
 256 192 l 1,9,-1
 256 320 l 1,10,-1
 320 320 l 1,11,-1
 320 192 l 1,8,-1
256 320 m 1,12,-1
 192 320 l 1,13,-1
 192 448 l 1,14,-1
 256 448 l 1,15,-1
 256 320 l 1,12,-1
192 448 m 1,16,-1
 128 448 l 1,17,-1
 128 512 l 1,18,-1
 192 512 l 1,19,-1
 192 448 l 1,16,-1
128 512 m 1,20,-1
 64 512 l 1,21,-1
 64 640 l 1,22,-1
 128 640 l 1,23,-1
 128 512 l 1,20,-1
EndSplineSet
Validated: 5
EndChar

StartChar: bracketright
Encoding: 93 93 63
Width: 512
Flags: W
LayerCount: 2
Fore
SplineSet
192 0 m 1,0,-1
 192 640 l 1,1,-1
 64 640 l 1,2,-1
 64 704 l 1,3,-1
 256 704 l 1,4,-1
 256 -64 l 1,5,-1
 64 -64 l 1,6,-1
 64 0 l 1,7,-1
 192 0 l 1,0,-1
EndSplineSet
Validated: 1
EndChar

StartChar: asciicircum
Encoding: 94 94 64
Width: 512
Flags: W
LayerCount: 2
Fore
SplineSet
448 576 m 1,0,-1
 384 576 l 1,1,-1
 384 640 l 1,2,-1
 448 640 l 1,3,-1
 448 576 l 1,0,-1
128 640 m 1,4,-1
 128 576 l 1,5,-1
 64 576 l 1,6,-1
 64 640 l 1,7,-1
 128 640 l 1,4,-1
128 640 m 1,8,-1
 128 704 l 1,9,-1
 192 704 l 1,10,-1
 192 640 l 1,11,-1
 128 640 l 1,8,-1
192 704 m 1,12,-1
 192 768 l 1,13,-1
 320 768 l 1,14,-1
 320 704 l 1,15,-1
 384 704 l 1,16,-1
 384 640 l 1,17,-1
 320 640 l 1,18,-1
 320 704 l 1,19,-1
 192 704 l 1,12,-1
EndSplineSet
Validated: 5
EndChar

StartChar: underscore
Encoding: 95 95 65
Width: 512
Flags: W
LayerCount: 2
Fore
SplineSet
512 -64 m 1,0,-1
 64 -64 l 1,1,-1
 64 0 l 1,2,-1
 512 0 l 1,3,-1
 512 -64 l 1,0,-1
EndSplineSet
Validated: 1
EndChar

StartChar: grave
Encoding: 96 96 66
Width: 512
Flags: W
LayerCount: 2
Fore
SplineSet
320 640 m 1,0,-1
 256 640 l 1,1,-1
 256 704 l 1,2,-1
 320 704 l 1,3,-1
 320 640 l 1,0,-1
192 768 m 1,4,-1
 256 768 l 1,5,-1
 256 704 l 1,6,-1
 192 704 l 1,7,-1
 192 768 l 1,4,-1
192 768 m 1,8,-1
 128 768 l 1,9,-1
 128 832 l 1,10,-1
 192 832 l 1,11,-1
 192 768 l 1,8,-1
EndSplineSet
Validated: 5
EndChar

StartChar: a
Encoding: 97 97 67
Width: 512
Flags: W
LayerCount: 2
Fore
SplineSet
128 64 m 1,0,-1
 320 64 l 1,1,-1
 320 0 l 1,2,-1
 128 0 l 1,3,-1
 128 64 l 1,0,-1
128 64 m 1,4,-1
 64 64 l 1,5,-1
 64 256 l 1,6,-1
 128 256 l 1,7,-1
 128 64 l 1,4,-1
128 256 m 1,8,-1
 128 320 l 1,9,-1
 384 320 l 1,10,-1
 384 448 l 1,11,-1
 448 448 l 1,12,-1
 448 0 l 1,13,-1
 384 0 l 1,14,-1
 384 64 l 1,15,-1
 320 64 l 1,16,-1
 320 128 l 1,17,-1
 384 128 l 1,18,-1
 384 256 l 1,19,-1
 128 256 l 1,8,-1
384 448 m 1,20,-1
 128 448 l 1,21,-1
 128 384 l 1,22,-1
 64 384 l 1,23,-1
 64 448 l 1,24,-1
 128 448 l 1,25,-1
 128 512 l 1,26,-1
 384 512 l 1,27,-1
 384 448 l 1,20,-1
EndSplineSet
Validated: 5
EndChar

StartChar: b
Encoding: 98 98 68
Width: 512
Flags: W
LayerCount: 2
Fore
SplineSet
128 64 m 1,0,-1
 128 0 l 1,1,-1
 64 0 l 1,2,-1
 64 704 l 1,3,-1
 128 704 l 1,4,-1
 128 448 l 1,5,-1
 192 448 l 1,6,-1
 192 384 l 1,7,-1
 128 384 l 1,8,-1
 128 128 l 1,9,-1
 192 128 l 1,10,-1
 192 64 l 1,11,-1
 384 64 l 1,12,-1
 384 0 l 1,13,-1
 192 0 l 1,14,-1
 192 64 l 1,15,-1
 128 64 l 1,0,-1
384 64 m 1,16,-1
 384 448 l 1,17,-1
 448 448 l 1,18,-1
 448 64 l 1,19,-1
 384 64 l 1,16,-1
384 448 m 1,20,-1
 192 448 l 1,21,-1
 192 512 l 1,22,-1
 384 512 l 1,23,-1
 384 448 l 1,20,-1
EndSplineSet
Validated: 5
EndChar

StartChar: c
Encoding: 99 99 69
Width: 512
Flags: W
LayerCount: 2
Fore
SplineSet
448 384 m 1,0,-1
 384 384 l 1,1,-1
 384 448 l 1,2,-1
 448 448 l 1,3,-1
 448 384 l 1,0,-1
384 64 m 1,4,-1
 384 0 l 1,5,-1
 128 0 l 1,6,-1
 128 64 l 1,7,-1
 384 64 l 1,4,-1
384 64 m 1,8,-1
 384 128 l 1,9,-1
 448 128 l 1,10,-1
 448 64 l 1,11,-1
 384 64 l 1,8,-1
128 64 m 1,12,-1
 64 64 l 1,13,-1
 64 448 l 1,14,-1
 128 448 l 1,15,-1
 128 64 l 1,12,-1
128 448 m 1,16,-1
 128 512 l 1,17,-1
 384 512 l 1,18,-1
 384 448 l 1,19,-1
 128 448 l 1,16,-1
EndSplineSet
Validated: 5
EndChar

StartChar: d
Encoding: 100 100 70
Width: 512
Flags: W
LayerCount: 2
Fore
SplineSet
128 64 m 1,0,-1
 320 64 l 1,1,-1
 320 0 l 1,2,-1
 128 0 l 1,3,-1
 128 64 l 1,0,-1
128 64 m 1,4,-1
 64 64 l 1,5,-1
 64 448 l 1,6,-1
 128 448 l 1,7,-1
 128 64 l 1,4,-1
320 64 m 1,8,-1
 320 128 l 1,9,-1
 384 128 l 1,10,-1
 384 384 l 1,11,-1
 320 384 l 1,12,-1
 320 448 l 1,13,-1
 384 448 l 1,14,-1
 384 704 l 1,15,-1
 448 704 l 1,16,-1
 448 0 l 1,17,-1
 384 0 l 1,18,-1
 384 64 l 1,19,-1
 320 64 l 1,8,-1
320 448 m 1,20,-1
 128 448 l 1,21,-1
 128 512 l 1,22,-1
 320 512 l 1,23,-1
 320 448 l 1,20,-1
EndSplineSet
Validated: 5
EndChar

StartChar: e
Encoding: 101 101 71
Width: 512
Flags: W
LayerCount: 2
Fore
SplineSet
384 64 m 1,0,-1
 384 0 l 1,1,-1
 128 0 l 1,2,-1
 128 64 l 1,3,-1
 384 64 l 1,0,-1
384 64 m 1,4,-1
 384 128 l 1,5,-1
 448 128 l 1,6,-1
 448 64 l 1,7,-1
 384 64 l 1,4,-1
128 64 m 1,8,-1
 64 64 l 1,9,-1
 64 448 l 1,10,-1
 128 448 l 1,11,-1
 128 320 l 1,12,-1
 384 320 l 1,13,-1
 384 448 l 1,14,-1
 448 448 l 1,15,-1
 448 256 l 1,16,-1
 128 256 l 1,17,-1
 128 64 l 1,8,-1
128 448 m 1,18,-1
 128 512 l 1,19,-1
 384 512 l 1,20,-1
 384 448 l 1,21,-1
 128 448 l 1,18,-1
EndSplineSet
Validated: 5
EndChar

StartChar: f
Encoding: 102 102 72
Width: 512
Flags: W
LayerCount: 2
Fore
SplineSet
384 384 m 1,0,-1
 256 384 l 1,1,-1
 256 0 l 1,2,-1
 192 0 l 1,3,-1
 192 384 l 1,4,-1
 64 384 l 1,5,-1
 64 448 l 1,6,-1
 192 448 l 1,7,-1
 192 640 l 1,8,-1
 256 640 l 1,9,-1
 256 448 l 1,10,-1
 384 448 l 1,11,-1
 384 384 l 1,0,-1
256 640 m 1,12,-1
 256 704 l 1,13,-1
 384 704 l 1,14,-1
 384 640 l 1,15,-1
 256 640 l 1,12,-1
EndSplineSet
Validated: 5
EndChar

StartChar: g
Encoding: 103 103 73
Width: 512
Flags: W
LayerCount: 2
Fore
SplineSet
128 -64 m 1,0,-1
 384 -64 l 1,1,-1
 384 -128 l 1,2,-1
 128 -128 l 1,3,-1
 128 -64 l 1,0,-1
128 -64 m 1,4,-1
 64 -64 l 1,5,-1
 64 64 l 1,6,-1
 128 64 l 1,7,-1
 128 -64 l 1,4,-1
384 -64 m 1,8,-1
 384 64 l 1,9,-1
 448 64 l 1,10,-1
 448 -64 l 1,11,-1
 384 -64 l 1,8,-1
128 64 m 1,12,-1
 128 256 l 1,13,-1
 320 256 l 1,14,-1
 320 192 l 1,15,-1
 192 192 l 1,16,-1
 192 128 l 1,17,-1
 384 128 l 1,18,-1
 384 64 l 1,19,-1
 128 64 l 1,12,-1
128 256 m 1,20,-1
 64 256 l 1,21,-1
 64 448 l 1,22,-1
 128 448 l 1,23,-1
 128 256 l 1,20,-1
128 448 m 1,24,-1
 128 512 l 1,25,-1
 320 512 l 1,26,-1
 320 448 l 1,27,-1
 384 448 l 1,28,-1
 384 256 l 1,29,-1
 320 256 l 1,30,-1
 320 448 l 1,31,-1
 128 448 l 1,24,-1
384 448 m 1,32,-1
 384 576 l 1,33,-1
 448 576 l 1,34,-1
 448 448 l 1,35,-1
 384 448 l 1,32,-1
EndSplineSet
Validated: 5
EndChar

StartChar: h
Encoding: 104 104 74
Width: 512
Flags: W
LayerCount: 2
Fore
SplineSet
64 704 m 1,0,-1
 128 704 l 1,1,-1
 128 448 l 1,2,-1
 192 448 l 1,3,-1
 192 384 l 1,4,-1
 128 384 l 1,5,-1
 128 0 l 1,6,-1
 64 0 l 1,7,-1
 64 704 l 1,0,-1
384 448 m 1,8,-1
 448 448 l 1,9,-1
 448 0 l 1,10,-1
 384 0 l 1,11,-1
 384 448 l 1,8,-1
384 448 m 1,12,-1
 192 448 l 1,13,-1
 192 512 l 1,14,-1
 384 512 l 1,15,-1
 384 448 l 1,12,-1
EndSplineSet
Validated: 5
EndChar

StartChar: i
Encoding: 105 105 75
Width: 512
Flags: W
LayerCount: 2
Fore
SplineSet
448 0 m 1,0,-1
 128 0 l 1,1,-1
 128 64 l 1,2,-1
 256 64 l 1,3,-1
 256 448 l 1,4,-1
 192 448 l 1,5,-1
 192 512 l 1,6,-1
 320 512 l 1,7,-1
 320 64 l 1,8,-1
 448 64 l 1,9,-1
 448 0 l 1,0,-1
256 704 m 1,10,-1
 320 704 l 1,11,-1
 320 576 l 1,12,-1
 256 576 l 1,13,-1
 256 704 l 1,10,-1
EndSplineSet
Validated: 1
EndChar

StartChar: j
Encoding: 106 106 76
Width: 512
Flags: W
LayerCount: 2
Fore
SplineSet
320 704 m 1,0,-1
 384 704 l 1,1,-1
 384 576 l 1,2,-1
 320 576 l 1,3,-1
 320 704 l 1,0,-1
128 -64 m 1,4,-1
 256 -64 l 1,5,-1
 256 -128 l 1,6,-1
 128 -128 l 1,7,-1
 128 -64 l 1,4,-1
128 -64 m 1,8,-1
 64 -64 l 1,9,-1
 64 0 l 1,10,-1
 128 0 l 1,11,-1
 128 -64 l 1,8,-1
256 -64 m 1,12,-1
 256 0 l 1,13,-1
 320 0 l 1,14,-1
 320 -64 l 1,15,-1
 256 -64 l 1,12,-1
320 0 m 1,16,-1
 320 448 l 1,17,-1
 256 448 l 1,18,-1
 256 512 l 1,19,-1
 384 512 l 1,20,-1
 384 0 l 1,21,-1
 320 0 l 1,16,-1
EndSplineSet
Validated: 5
EndChar

StartChar: k
Encoding: 107 107 77
Width: 512
Flags: W
LayerCount: 2
Fore
SplineSet
448 0 m 1,0,-1
 384 0 l 1,1,-1
 384 64 l 1,2,-1
 448 64 l 1,3,-1
 448 0 l 1,0,-1
320 448 m 1,4,-1
 320 384 l 1,5,-1
 256 384 l 1,6,-1
 256 320 l 1,7,-1
 192 320 l 1,8,-1
 192 256 l 1,9,-1
 256 256 l 1,10,-1
 256 192 l 1,11,-1
 320 192 l 1,12,-1
 320 128 l 1,13,-1
 384 128 l 1,14,-1
 384 64 l 1,15,-1
 320 64 l 1,16,-1
 320 128 l 1,17,-1
 256 128 l 1,18,-1
 256 192 l 1,19,-1
 192 192 l 1,20,-1
 192 256 l 1,21,-1
 128 256 l 1,22,-1
 128 0 l 1,23,-1
 64 0 l 1,24,-1
 64 704 l 1,25,-1
 128 704 l 1,26,-1
 128 320 l 1,27,-1
 192 320 l 1,28,-1
 192 384 l 1,29,-1
 256 384 l 1,30,-1
 256 448 l 1,31,-1
 320 448 l 1,4,-1
320 448 m 1,32,-1
 320 512 l 1,33,-1
 384 512 l 1,34,-1
 384 448 l 1,35,-1
 320 448 l 1,32,-1
EndSplineSet
Validated: 5
EndChar

StartChar: l
Encoding: 108 108 78
Width: 512
Flags: W
LayerCount: 2
Fore
SplineSet
448 0 m 1,0,-1
 128 0 l 1,1,-1
 128 64 l 1,2,-1
 256 64 l 1,3,-1
 256 640 l 1,4,-1
 192 640 l 1,5,-1
 192 704 l 1,6,-1
 320 704 l 1,7,-1
 320 64 l 1,8,-1
 448 64 l 1,9,-1
 448 0 l 1,0,-1
EndSplineSet
Validated: 1
EndChar

StartChar: m
Encoding: 109 109 79
Width: 512
Flags: W
LayerCount: 2
Fore
SplineSet
64 512 m 1,0,-1
 256 512 l 1,1,-1
 256 448 l 1,2,-1
 320 448 l 1,3,-1
 320 0 l 1,4,-1
 256 0 l 1,5,-1
 256 448 l 1,6,-1
 128 448 l 1,7,-1
 128 0 l 1,8,-1
 64 0 l 1,9,-1
 64 512 l 1,0,-1
448 448 m 1,10,-1
 512 448 l 1,11,-1
 512 0 l 1,12,-1
 448 0 l 1,13,-1
 448 448 l 1,10,-1
448 448 m 1,14,-1
 320 448 l 1,15,-1
 320 512 l 1,16,-1
 448 512 l 1,17,-1
 448 448 l 1,14,-1
EndSplineSet
Validated: 5
EndChar

StartChar: n
Encoding: 110 110 80
Width: 512
Flags: W
LayerCount: 2
Fore
SplineSet
64 512 m 1,0,-1
 128 512 l 1,1,-1
 128 448 l 1,2,-1
 192 448 l 1,3,-1
 192 384 l 1,4,-1
 128 384 l 1,5,-1
 128 0 l 1,6,-1
 64 0 l 1,7,-1
 64 512 l 1,0,-1
384 448 m 1,8,-1
 448 448 l 1,9,-1
 448 0 l 1,10,-1
 384 0 l 1,11,-1
 384 448 l 1,8,-1
384 448 m 1,12,-1
 192 448 l 1,13,-1
 192 512 l 1,14,-1
 384 512 l 1,15,-1
 384 448 l 1,12,-1
EndSplineSet
Validated: 5
EndChar

StartChar: o
Encoding: 111 111 81
Width: 512
Flags: W
LayerCount: 2
Fore
SplineSet
128 64 m 1,0,-1
 384 64 l 1,1,-1
 384 0 l 1,2,-1
 128 0 l 1,3,-1
 128 64 l 1,0,-1
128 64 m 1,4,-1
 64 64 l 1,5,-1
 64 448 l 1,6,-1
 128 448 l 1,7,-1
 128 64 l 1,4,-1
384 64 m 1,8,-1
 384 448 l 1,9,-1
 448 448 l 1,10,-1
 448 64 l 1,11,-1
 384 64 l 1,8,-1
384 448 m 1,12,-1
 128 448 l 1,13,-1
 128 512 l 1,14,-1
 384 512 l 1,15,-1
 384 448 l 1,12,-1
EndSplineSet
Validated: 5
EndChar

StartChar: p
Encoding: 112 112 82
Width: 512
Flags: W
LayerCount: 2
Fore
SplineSet
64 512 m 1,0,-1
 128 512 l 1,1,-1
 128 448 l 1,2,-1
 192 448 l 1,3,-1
 192 384 l 1,4,-1
 128 384 l 1,5,-1
 128 128 l 1,6,-1
 192 128 l 1,7,-1
 192 64 l 1,8,-1
 384 64 l 1,9,-1
 384 0 l 1,10,-1
 192 0 l 1,11,-1
 192 64 l 1,12,-1
 128 64 l 1,13,-1
 128 -128 l 1,14,-1
 64 -128 l 1,15,-1
 64 512 l 1,0,-1
384 64 m 1,16,-1
 384 448 l 1,17,-1
 448 448 l 1,18,-1
 448 64 l 1,19,-1
 384 64 l 1,16,-1
384 448 m 1,20,-1
 192 448 l 1,21,-1
 192 512 l 1,22,-1
 384 512 l 1,23,-1
 384 448 l 1,20,-1
EndSplineSet
Validated: 5
EndChar

StartChar: q
Encoding: 113 113 83
Width: 512
Flags: W
LayerCount: 2
Fore
SplineSet
320 64 m 1,0,-1
 320 0 l 1,1,-1
 128 0 l 1,2,-1
 128 64 l 1,3,-1
 320 64 l 1,0,-1
320 64 m 1,4,-1
 320 128 l 1,5,-1
 384 128 l 1,6,-1
 384 384 l 1,7,-1
 320 384 l 1,8,-1
 320 448 l 1,9,-1
 384 448 l 1,10,-1
 384 512 l 1,11,-1
 448 512 l 1,12,-1
 448 -128 l 1,13,-1
 384 -128 l 1,14,-1
 384 64 l 1,15,-1
 320 64 l 1,4,-1
128 64 m 1,16,-1
 64 64 l 1,17,-1
 64 448 l 1,18,-1
 128 448 l 1,19,-1
 128 64 l 1,16,-1
320 448 m 1,20,-1
 128 448 l 1,21,-1
 128 512 l 1,22,-1
 320 512 l 1,23,-1
 320 448 l 1,20,-1
EndSplineSet
Validated: 5
EndChar

StartChar: r
Encoding: 114 114 84
Width: 512
Flags: W
LayerCount: 2
Fore
SplineSet
64 512 m 1,0,-1
 128 512 l 1,1,-1
 128 448 l 1,2,-1
 192 448 l 1,3,-1
 192 384 l 1,4,-1
 128 384 l 1,5,-1
 128 0 l 1,6,-1
 64 0 l 1,7,-1
 64 512 l 1,0,-1
384 448 m 1,8,-1
 448 448 l 1,9,-1
 448 320 l 1,10,-1
 384 320 l 1,11,-1
 384 448 l 1,8,-1
384 448 m 1,12,-1
 192 448 l 1,13,-1
 192 512 l 1,14,-1
 384 512 l 1,15,-1
 384 448 l 1,12,-1
EndSplineSet
Validated: 5
EndChar

StartChar: s
Encoding: 115 115 85
Width: 512
Flags: W
LayerCount: 2
Fore
SplineSet
448 384 m 1,0,-1
 384 384 l 1,1,-1
 384 448 l 1,2,-1
 448 448 l 1,3,-1
 448 384 l 1,0,-1
128 64 m 1,4,-1
 384 64 l 1,5,-1
 384 0 l 1,6,-1
 128 0 l 1,7,-1
 128 64 l 1,4,-1
128 64 m 1,8,-1
 64 64 l 1,9,-1
 64 128 l 1,10,-1
 128 128 l 1,11,-1
 128 64 l 1,8,-1
384 64 m 1,12,-1
 384 192 l 1,13,-1
 448 192 l 1,14,-1
 448 64 l 1,15,-1
 384 64 l 1,12,-1
384 192 m 1,16,-1
 256 192 l 1,17,-1
 256 256 l 1,18,-1
 384 256 l 1,19,-1
 384 192 l 1,16,-1
256 256 m 1,20,-1
 128 256 l 1,21,-1
 128 320 l 1,22,-1
 256 320 l 1,23,-1
 256 256 l 1,20,-1
128 320 m 1,24,-1
 64 320 l 1,25,-1
 64 448 l 1,26,-1
 128 448 l 1,27,-1
 128 320 l 1,24,-1
128 448 m 1,28,-1
 128 512 l 1,29,-1
 384 512 l 1,30,-1
 384 448 l 1,31,-1
 128 448 l 1,28,-1
EndSplineSet
Validated: 5
EndChar

StartChar: t
Encoding: 116 116 86
Width: 512
Flags: W
LayerCount: 2
Fore
SplineSet
384 0 m 1,0,-1
 256 0 l 1,1,-1
 256 64 l 1,2,-1
 384 64 l 1,3,-1
 384 0 l 1,0,-1
384 384 m 1,4,-1
 256 384 l 1,5,-1
 256 64 l 1,6,-1
 192 64 l 1,7,-1
 192 384 l 1,8,-1
 64 384 l 1,9,-1
 64 448 l 1,10,-1
 192 448 l 1,11,-1
 192 640 l 1,12,-1
 256 640 l 1,13,-1
 256 448 l 1,14,-1
 384 448 l 1,15,-1
 384 384 l 1,4,-1
EndSplineSet
Validated: 5
EndChar

StartChar: u
Encoding: 117 117 87
Width: 512
Flags: W
LayerCount: 2
Fore
SplineSet
320 64 m 1,0,-1
 320 0 l 1,1,-1
 128 0 l 1,2,-1
 128 64 l 1,3,-1
 320 64 l 1,0,-1
320 64 m 1,4,-1
 320 128 l 1,5,-1
 384 128 l 1,6,-1
 384 512 l 1,7,-1
 448 512 l 1,8,-1
 448 0 l 1,9,-1
 384 0 l 1,10,-1
 384 64 l 1,11,-1
 320 64 l 1,4,-1
128 64 m 1,12,-1
 64 64 l 1,13,-1
 64 512 l 1,14,-1
 128 512 l 1,15,-1
 128 64 l 1,12,-1
EndSplineSet
Validated: 5
EndChar

StartChar: v
Encoding: 118 118 88
Width: 512
Flags: W
LayerCount: 2
Fore
SplineSet
192 128 m 1,0,-1
 320 128 l 1,1,-1
 320 0 l 1,2,-1
 192 0 l 1,3,-1
 192 128 l 1,0,-1
192 128 m 1,4,-1
 128 128 l 1,5,-1
 128 320 l 1,6,-1
 192 320 l 1,7,-1
 192 128 l 1,4,-1
128 320 m 1,8,-1
 64 320 l 1,9,-1
 64 512 l 1,10,-1
 128 512 l 1,11,-1
 128 320 l 1,8,-1
320 128 m 1,12,-1
 320 320 l 1,13,-1
 384 320 l 1,14,-1
 384 128 l 1,15,-1
 320 128 l 1,12,-1
384 320 m 1,16,-1
 384 512 l 1,17,-1
 448 512 l 1,18,-1
 448 320 l 1,19,-1
 384 320 l 1,16,-1
EndSplineSet
Validated: 5
EndChar

StartChar: w
Encoding: 119 119 89
Width: 512
Flags: W
LayerCount: 2
Fore
SplineSet
128 64 m 1,0,-1
 256 64 l 1,1,-1
 256 0 l 1,2,-1
 128 0 l 1,3,-1
 128 64 l 1,0,-1
128 64 m 1,4,-1
 64 64 l 1,5,-1
 64 512 l 1,6,-1
 128 512 l 1,7,-1
 128 64 l 1,4,-1
256 64 m 1,8,-1
 256 448 l 1,9,-1
 320 448 l 1,10,-1
 320 64 l 1,11,-1
 448 64 l 1,12,-1
 448 0 l 1,13,-1
 320 0 l 1,14,-1
 320 64 l 1,15,-1
 256 64 l 1,8,-1
448 64 m 1,16,-1
 448 512 l 1,17,-1
 512 512 l 1,18,-1
 512 64 l 1,19,-1
 448 64 l 1,16,-1
EndSplineSet
Validated: 5
EndChar

StartChar: x
Encoding: 120 120 90
Width: 512
Flags: W
LayerCount: 2
Fore
SplineSet
128 128 m 1,0,-1
 128 0 l 1,1,-1
 64 0 l 1,2,-1
 64 128 l 1,3,-1
 128 128 l 1,0,-1
128 128 m 1,4,-1
 128 192 l 1,5,-1
 192 192 l 1,6,-1
 192 128 l 1,7,-1
 128 128 l 1,4,-1
384 128 m 1,8,-1
 448 128 l 1,9,-1
 448 0 l 1,10,-1
 384 0 l 1,11,-1
 384 128 l 1,8,-1
384 128 m 1,12,-1
 320 128 l 1,13,-1
 320 192 l 1,14,-1
 384 192 l 1,15,-1
 384 128 l 1,12,-1
192 192 m 1,16,-1
 192 320 l 1,17,-1
 320 320 l 1,18,-1
 320 192 l 1,19,-1
 192 192 l 1,16,-1
192 320 m 1,20,-1
 128 320 l 1,21,-1
 128 384 l 1,22,-1
 192 384 l 1,23,-1
 192 320 l 1,20,-1
128 384 m 1,24,-1
 64 384 l 1,25,-1
 64 512 l 1,26,-1
 128 512 l 1,27,-1
 128 384 l 1,24,-1
320 320 m 1,28,-1
 320 384 l 1,29,-1
 384 384 l 1,30,-1
 384 320 l 1,31,-1
 320 320 l 1,28,-1
384 384 m 1,32,-1
 384 512 l 1,33,-1
 448 512 l 1,34,-1
 448 384 l 1,35,-1
 384 384 l 1,32,-1
EndSplineSet
Validated: 5
EndChar

StartChar: y
Encoding: 121 121 91
Width: 512
Flags: W
LayerCount: 2
Fore
SplineSet
384 -64 m 1,0,-1
 384 -128 l 1,1,-1
 128 -128 l 1,2,-1
 128 -64 l 1,3,-1
 384 -64 l 1,0,-1
384 -64 m 1,4,-1
 384 128 l 1,5,-1
 320 128 l 1,6,-1
 320 64 l 1,7,-1
 192 64 l 1,8,-1
 192 128 l 1,9,-1
 320 128 l 1,10,-1
 320 192 l 1,11,-1
 384 192 l 1,12,-1
 384 512 l 1,13,-1
 448 512 l 1,14,-1
 448 -64 l 1,15,-1
 384 -64 l 1,4,-1
192 128 m 1,16,-1
 128 128 l 1,17,-1
 128 192 l 1,18,-1
 192 192 l 1,19,-1
 192 128 l 1,16,-1
128 192 m 1,20,-1
 64 192 l 1,21,-1
 64 512 l 1,22,-1
 128 512 l 1,23,-1
 128 192 l 1,20,-1
EndSplineSet
Validated: 5
EndChar

StartChar: z
Encoding: 122 122 92
Width: 512
Flags: W
LayerCount: 2
Fore
SplineSet
448 0 m 1,0,-1
 64 0 l 1,1,-1
 64 128 l 1,2,-1
 128 128 l 1,3,-1
 128 64 l 1,4,-1
 448 64 l 1,5,-1
 448 0 l 1,0,-1
384 384 m 1,6,-1
 384 320 l 1,7,-1
 320 320 l 1,8,-1
 320 256 l 1,9,-1
 256 256 l 1,10,-1
 256 192 l 1,11,-1
 192 192 l 1,12,-1
 192 128 l 1,13,-1
 128 128 l 1,14,-1
 128 192 l 1,15,-1
 192 192 l 1,16,-1
 192 256 l 1,17,-1
 256 256 l 1,18,-1
 256 320 l 1,19,-1
 320 320 l 1,20,-1
 320 384 l 1,21,-1
 384 384 l 1,6,-1
384 384 m 1,22,-1
 384 448 l 1,23,-1
 64 448 l 1,24,-1
 64 512 l 1,25,-1
 448 512 l 1,26,-1
 448 384 l 1,27,-1
 384 384 l 1,22,-1
EndSplineSet
Validated: 5
EndChar

StartChar: braceleft
Encoding: 123 123 93
Width: 512
Flags: W
LayerCount: 2
Fore
SplineSet
384 -128 m 1,0,-1
 256 -128 l 1,1,-1
 256 -64 l 1,2,-1
 384 -64 l 1,3,-1
 384 -128 l 1,0,-1
256 640 m 1,4,-1
 256 512 l 1,5,-1
 320 512 l 1,6,-1
 320 384 l 1,7,-1
 256 384 l 1,8,-1
 256 320 l 1,9,-1
 192 320 l 1,10,-1
 192 256 l 1,11,-1
 256 256 l 1,12,-1
 256 192 l 1,13,-1
 320 192 l 1,14,-1
 320 64 l 1,15,-1
 256 64 l 1,16,-1
 256 -64 l 1,17,-1
 192 -64 l 1,18,-1
 192 64 l 1,19,-1
 256 64 l 1,20,-1
 256 192 l 1,21,-1
 192 192 l 1,22,-1
 192 256 l 1,23,-1
 128 256 l 1,24,-1
 128 320 l 1,25,-1
 192 320 l 1,26,-1
 192 384 l 1,27,-1
 256 384 l 1,28,-1
 256 512 l 1,29,-1
 192 512 l 1,30,-1
 192 640 l 1,31,-1
 256 640 l 1,4,-1
256 640 m 1,32,-1
 256 704 l 1,33,-1
 384 704 l 1,34,-1
 384 640 l 1,35,-1
 256 640 l 1,32,-1
EndSplineSet
Validated: 5
EndChar

StartChar: bar
Encoding: 124 124 94
Width: 512
Flags: W
LayerCount: 2
Fore
SplineSet
256 768 m 1,0,-1
 320 768 l 1,1,-1
 320 -128 l 1,2,-1
 256 -128 l 1,3,-1
 256 768 l 1,0,-1
EndSplineSet
Validated: 1
EndChar

StartChar: braceright
Encoding: 125 125 95
Width: 512
Flags: W
LayerCount: 2
Fore
SplineSet
256 192 m 1,0,-1
 256 64 l 1,1,-1
 320 64 l 1,2,-1
 320 -64 l 1,3,-1
 256 -64 l 1,4,-1
 256 -128 l 1,5,-1
 128 -128 l 1,6,-1
 128 -64 l 1,7,-1
 256 -64 l 1,8,-1
 256 64 l 1,9,-1
 192 64 l 1,10,-1
 192 192 l 1,11,-1
 256 192 l 1,0,-1
256 192 m 1,12,-1
 256 256 l 1,13,-1
 320 256 l 1,14,-1
 320 192 l 1,15,-1
 256 192 l 1,12,-1
320 256 m 1,16,-1
 320 320 l 1,17,-1
 384 320 l 1,18,-1
 384 256 l 1,19,-1
 320 256 l 1,16,-1
320 320 m 1,20,-1
 256 320 l 1,21,-1
 256 384 l 1,22,-1
 320 384 l 1,23,-1
 320 320 l 1,20,-1
256 384 m 1,24,-1
 192 384 l 1,25,-1
 192 512 l 1,26,-1
 256 512 l 1,27,-1
 256 384 l 1,24,-1
256 512 m 1,28,-1
 256 640 l 1,29,-1
 320 640 l 1,30,-1
 320 512 l 1,31,-1
 256 512 l 1,28,-1
256 640 m 1,32,-1
 128 640 l 1,33,-1
 128 704 l 1,34,-1
 256 704 l 1,35,-1
 256 640 l 1,32,-1
EndSplineSet
Validated: 5
EndChar

StartChar: asciitilde
Encoding: 126 126 96
Width: 512
Flags: W
LayerCount: 2
Fore
SplineSet
448 576 m 1,0,-1
 448 512 l 1,1,-1
 320 512 l 1,2,-1
 320 576 l 1,3,-1
 448 576 l 1,0,-1
448 576 m 1,4,-1
 448 704 l 1,5,-1
 512 704 l 1,6,-1
 512 576 l 1,7,-1
 448 576 l 1,4,-1
320 576 m 1,8,-1
 256 576 l 1,9,-1
 256 640 l 1,10,-1
 320 640 l 1,11,-1
 320 576 l 1,8,-1
256 640 m 1,12,-1
 128 640 l 1,13,-1
 128 512 l 1,14,-1
 64 512 l 1,15,-1
 64 640 l 1,16,-1
 128 640 l 1,17,-1
 128 704 l 1,18,-1
 256 704 l 1,19,-1
 256 640 l 1,12,-1
EndSplineSet
Validated: 5
EndChar

StartChar: dnblock
Encoding: 9604 9604 97
Width: 1024
VWidth: 0
Flags: W
LayerCount: 2
Fore
SplineSet
4 -120 m 1,0,-1
 4 512 l 5,1,-1
 1020 512 l 1,2,-1
 1020 -120 l 1,3,4
 512 -116 512 -116 4 -120 c 1,0,-1
EndSplineSet
Validated: 33
EndChar

StartChar: block
Encoding: 9608 9608 98
Width: 1024
VWidth: 0
Flags: W
AnchorPoint: "char_top" -0 896 basechar 0
LayerCount: 2
Fore
SplineSet
2 898 m 1,0,1
 512 900 512 900 1022 898 c 13,2,-1
 1022 -122 l 1,3,-1
 2 -122 l 1,4,-1
 2 898 l 1,0,1
EndSplineSet
Validated: 33
EndChar

StartChar: ltshade
Encoding: 9617 9617 99
Width: 1024
VWidth: 0
Flags: W
LayerCount: 2
Fore
SplineSet
726 -113 m 1,0,-1
 582 -113 l 1,1,-1
 582 31 l 1,2,-1
 726 31 l 1,3,-1
 726 -113 l 1,0,-1
438 -113 m 1,4,-1
 294 -113 l 1,5,-1
 294 31 l 1,6,-1
 438 31 l 1,7,-1
 438 -113 l 1,4,-1
150 -113 m 1,8,-1
 6 -113 l 1,9,-1
 6 31 l 1,10,-1
 150 31 l 1,11,-1
 150 -113 l 1,8,-1
150 175 m 1,12,-1
 6 175 l 1,13,-1
 6 319 l 1,14,-1
 150 319 l 1,15,-1
 150 175 l 1,12,-1
294 31 m 1,16,-1
 150 31 l 1,17,-1
 150 175 l 1,18,-1
 294 175 l 1,19,-1
 294 31 l 1,16,-1
582 31 m 1,20,-1
 438 31 l 1,21,-1
 438 175 l 1,22,-1
 582 175 l 1,23,-1
 582 31 l 1,20,-1
438 175 m 1,24,-1
 294 175 l 1,25,-1
 294 319 l 1,26,-1
 438 319 l 1,27,-1
 438 175 l 1,24,-1
294 319 m 1,28,-1
 150 319 l 1,29,-1
 150 463 l 1,30,-1
 294 463 l 1,31,-1
 294 319 l 1,28,-1
150 463 m 1,32,-1
 6 463 l 1,33,-1
 6 607 l 1,34,-1
 150 607 l 1,35,-1
 150 463 l 1,32,-1
1014 751 m 1,36,-1
 870 751 l 1,37,-1
 870 895 l 1,38,-1
 1014 895 l 1,39,-1
 1014 751 l 1,36,-1
1014 463 m 1,40,-1
 870 463 l 1,41,-1
 870 607 l 1,42,-1
 1014 607 l 1,43,-1
 1014 463 l 1,40,-1
870 607 m 1,44,-1
 726 607 l 1,45,-1
 726 751 l 1,46,-1
 870 751 l 1,47,-1
 870 607 l 1,44,-1
438 751 m 1,48,-1
 294 751 l 1,49,-1
 294 895 l 1,50,-1
 438 895 l 1,51,-1
 438 751 l 1,48,-1
726 751 m 1,52,-1
 582 751 l 1,53,-1
 582 895 l 1,54,-1
 726 895 l 1,55,-1
 726 751 l 1,52,-1
582 607 m 1,56,-1
 438 607 l 1,57,-1
 438 751 l 1,58,-1
 582 751 l 1,59,-1
 582 607 l 1,56,-1
726 463 m 1,60,-1
 582 463 l 1,61,-1
 582 607 l 1,62,-1
 726 607 l 1,63,-1
 726 463 l 1,60,-1
870 319 m 1,64,-1
 726 319 l 1,65,-1
 726 463 l 1,66,-1
 870 463 l 1,67,-1
 870 319 l 1,64,-1
1014 175 m 1,68,-1
 870 175 l 1,69,-1
 870 319 l 1,70,-1
 1014 319 l 1,71,-1
 1014 175 l 1,68,-1
1014 -113 m 1,72,-1
 870 -113 l 1,73,-1
 870 31 l 1,74,-1
 1014 31 l 1,75,-1
 1014 -113 l 1,72,-1
870 31 m 1,76,-1
 726 31 l 1,77,-1
 726 175 l 1,78,-1
 870 175 l 1,79,-1
 870 31 l 1,76,-1
726 175 m 1,80,-1
 582 175 l 1,81,-1
 582 319 l 1,82,-1
 726 319 l 1,83,-1
 726 175 l 1,80,-1
582 319 m 1,84,-1
 438 319 l 1,85,-1
 438 463 l 1,86,-1
 582 463 l 1,87,-1
 582 319 l 1,84,-1
438 463 m 1,88,-1
 294 463 l 1,89,-1
 294 607 l 1,90,-1
 438 607 l 1,91,-1
 438 463 l 1,88,-1
294 607 m 1,92,-1
 150 607 l 1,93,-1
 150 751 l 1,94,-1
 294 751 l 1,95,-1
 294 607 l 1,92,-1
150 751 m 1,96,-1
 6 751 l 1,97,-1
 6 895 l 1,98,-1
 150 895 l 1,99,-1
 150 751 l 1,96,-1
EndSplineSet
Validated: 5
EndChar

StartChar: shade
Encoding: 9618 9618 100
Width: 1024
VWidth: 0
Flags: W
LayerCount: 2
Fore
SplineSet
726 -113 m 1,0,-1
 582 -113 l 1,1,-1
 582 31 l 1,2,-1
 726 31 l 1,3,-1
 726 -113 l 1,0,-1
438 -113 m 1,4,-1
 294 -113 l 1,5,-1
 294 31 l 1,6,-1
 438 31 l 1,7,-1
 438 -113 l 1,4,-1
150 -113 m 1,8,-1
 6 -113 l 1,9,-1
 6 31 l 1,10,-1
 150 31 l 1,11,-1
 150 -113 l 1,8,-1
150 175 m 1,12,-1
 6 175 l 1,13,-1
 6 319 l 1,14,-1
 150 319 l 1,15,-1
 150 175 l 1,12,-1
294 31 m 1,16,-1
 150 31 l 1,17,-1
 150 175 l 1,18,-1
 294 175 l 1,19,-1
 294 31 l 1,16,-1
582 31 m 1,20,-1
 438 31 l 1,21,-1
 438 175 l 1,22,-1
 582 175 l 1,23,-1
 582 31 l 1,20,-1
438 175 m 1,24,-1
 294 175 l 1,25,-1
 294 319 l 1,26,-1
 438 319 l 1,27,-1
 438 175 l 1,24,-1
294 319 m 1,28,-1
 150 319 l 1,29,-1
 150 463 l 1,30,-1
 294 463 l 1,31,-1
 294 319 l 1,28,-1
150 463 m 1,32,-1
 6 463 l 1,33,-1
 6 607 l 1,34,-1
 150 607 l 1,35,-1
 150 463 l 1,32,-1
1014 751 m 1,36,-1
 870 751 l 1,37,-1
 870 895 l 1,38,-1
 1014 895 l 1,39,-1
 1014 751 l 1,36,-1
1014 463 m 1,40,-1
 870 463 l 1,41,-1
 870 607 l 1,42,-1
 1014 607 l 1,43,-1
 1014 463 l 1,40,-1
870 607 m 1,44,-1
 726 607 l 1,45,-1
 726 751 l 1,46,-1
 870 751 l 1,47,-1
 870 607 l 1,44,-1
438 751 m 1,48,-1
 294 751 l 1,49,-1
 294 895 l 1,50,-1
 438 895 l 1,51,-1
 438 751 l 1,48,-1
726 751 m 1,52,-1
 582 751 l 1,53,-1
 582 895 l 1,54,-1
 726 895 l 1,55,-1
 726 751 l 1,52,-1
582 607 m 1,56,-1
 438 607 l 1,57,-1
 438 751 l 1,58,-1
 582 751 l 1,59,-1
 582 607 l 1,56,-1
726 463 m 1,60,-1
 582 463 l 1,61,-1
 582 607 l 1,62,-1
 726 607 l 1,63,-1
 726 463 l 1,60,-1
870 319 m 1,64,-1
 726 319 l 1,65,-1
 726 463 l 1,66,-1
 870 463 l 1,67,-1
 870 319 l 1,64,-1
1014 175 m 1,68,-1
 870 175 l 1,69,-1
 870 319 l 1,70,-1
 1014 319 l 1,71,-1
 1014 175 l 1,68,-1
1014 -113 m 1,72,-1
 870 -113 l 1,73,-1
 870 31 l 1,74,-1
 1014 31 l 1,75,-1
 1014 -113 l 1,72,-1
870 31 m 1,76,-1
 726 31 l 1,77,-1
 726 175 l 1,78,-1
 870 175 l 1,79,-1
 870 31 l 1,76,-1
726 175 m 1,80,-1
 582 175 l 1,81,-1
 582 319 l 1,82,-1
 726 319 l 1,83,-1
 726 175 l 1,80,-1
582 319 m 1,84,-1
 438 319 l 1,85,-1
 438 463 l 1,86,-1
 582 463 l 1,87,-1
 582 319 l 1,84,-1
438 463 m 1,88,-1
 294 463 l 1,89,-1
 294 607 l 1,90,-1
 438 607 l 1,91,-1
 438 463 l 1,88,-1
294 607 m 1,92,-1
 150 607 l 1,93,-1
 150 751 l 1,94,-1
 294 751 l 1,95,-1
 294 607 l 1,92,-1
150 751 m 1,96,-1
 6 751 l 1,97,-1
 6 895 l 1,98,-1
 150 895 l 1,99,-1
 150 751 l 1,96,-1
EndSplineSet
Validated: 5
EndChar

StartChar: dkshade
Encoding: 9619 9619 101
Width: 1024
VWidth: 0
Flags: W
LayerCount: 2
Fore
SplineSet
726 -113 m 1,0,-1
 582 -113 l 1,1,-1
 582 31 l 1,2,-1
 726 31 l 1,3,-1
 726 -113 l 1,0,-1
438 -113 m 1,4,-1
 294 -113 l 1,5,-1
 294 31 l 1,6,-1
 438 31 l 1,7,-1
 438 -113 l 1,4,-1
150 -113 m 1,8,-1
 6 -113 l 1,9,-1
 6 31 l 1,10,-1
 150 31 l 1,11,-1
 150 -113 l 1,8,-1
150 175 m 1,12,-1
 6 175 l 1,13,-1
 6 319 l 1,14,-1
 150 319 l 1,15,-1
 150 175 l 1,12,-1
294 31 m 1,16,-1
 150 31 l 1,17,-1
 150 175 l 1,18,-1
 294 175 l 1,19,-1
 294 31 l 1,16,-1
582 31 m 1,20,-1
 438 31 l 1,21,-1
 438 175 l 1,22,-1
 582 175 l 1,23,-1
 582 31 l 1,20,-1
438 175 m 1,24,-1
 294 175 l 1,25,-1
 294 319 l 1,26,-1
 438 319 l 1,27,-1
 438 175 l 1,24,-1
294 319 m 1,28,-1
 150 319 l 1,29,-1
 150 463 l 1,30,-1
 294 463 l 1,31,-1
 294 319 l 1,28,-1
150 463 m 1,32,-1
 6 463 l 1,33,-1
 6 607 l 1,34,-1
 150 607 l 1,35,-1
 150 463 l 1,32,-1
1014 751 m 1,36,-1
 870 751 l 1,37,-1
 870 895 l 1,38,-1
 1014 895 l 1,39,-1
 1014 751 l 1,36,-1
1014 463 m 1,40,-1
 870 463 l 1,41,-1
 870 607 l 1,42,-1
 1014 607 l 1,43,-1
 1014 463 l 1,40,-1
870 607 m 1,44,-1
 726 607 l 1,45,-1
 726 751 l 1,46,-1
 870 751 l 1,47,-1
 870 607 l 1,44,-1
438 751 m 1,48,-1
 294 751 l 1,49,-1
 294 895 l 1,50,-1
 438 895 l 1,51,-1
 438 751 l 1,48,-1
726 751 m 1,52,-1
 582 751 l 1,53,-1
 582 895 l 1,54,-1
 726 895 l 1,55,-1
 726 751 l 1,52,-1
582 607 m 1,56,-1
 438 607 l 1,57,-1
 438 751 l 1,58,-1
 582 751 l 1,59,-1
 582 607 l 1,56,-1
726 463 m 1,60,-1
 582 463 l 1,61,-1
 582 607 l 1,62,-1
 726 607 l 1,63,-1
 726 463 l 1,60,-1
870 319 m 1,64,-1
 726 319 l 1,65,-1
 726 463 l 1,66,-1
 870 463 l 1,67,-1
 870 319 l 1,64,-1
1014 175 m 1,68,-1
 870 175 l 1,69,-1
 870 319 l 1,70,-1
 1014 319 l 1,71,-1
 1014 175 l 1,68,-1
1014 -113 m 1,72,-1
 870 -113 l 1,73,-1
 870 31 l 1,74,-1
 1014 31 l 1,75,-1
 1014 -113 l 1,72,-1
870 31 m 1,76,-1
 726 31 l 1,77,-1
 726 175 l 1,78,-1
 870 175 l 1,79,-1
 870 31 l 1,76,-1
726 175 m 1,80,-1
 582 175 l 1,81,-1
 582 319 l 1,82,-1
 726 319 l 1,83,-1
 726 175 l 1,80,-1
582 319 m 1,84,-1
 438 319 l 1,85,-1
 438 463 l 1,86,-1
 582 463 l 1,87,-1
 582 319 l 1,84,-1
438 463 m 1,88,-1
 294 463 l 1,89,-1
 294 607 l 1,90,-1
 438 607 l 1,91,-1
 438 463 l 1,88,-1
294 607 m 1,92,-1
 150 607 l 1,93,-1
 150 751 l 1,94,-1
 294 751 l 1,95,-1
 294 607 l 1,92,-1
150 751 m 1,96,-1
 6 751 l 5,97,-1
 6 895 l 5,98,-1
 150 895 l 1,99,-1
 150 751 l 1,96,-1
EndSplineSet
Validated: 5
EndChar

StartChar: H18543
Encoding: 9642 9642 102
Width: 1024
VWidth: 0
Flags: W
LayerCount: 2
Fore
SplineSet
434 466 m 29,0,-1
 590 466 l 5,1,-1
 590 310 l 5,2,-1
 434 310 l 5,3,-1
 434 466 l 29,0,-1
434 466 m 1029,4,-1
EndSplineSet
EndChar

StartChar: uni2501
Encoding: 9473 9473 104
Width: 1024
VWidth: 0
Flags: W
LayerCount: 2
Fore
SplineSet
0 450 m 1,0,-1
 1024 450 l 1,1,-1
 1024 326 l 5,2,-1
 0 326 l 1,3,-1
 0 450 l 1,0,-1
EndSplineSet
Validated: 1
EndChar

StartChar: uni2503
Encoding: 9475 9475 105
Width: 1024
VWidth: 0
LayerCount: 2
Fore
SplineSet
450 896 m 261,0,-1
 574 896 l 5,1,-1
 574 -124 l 5,2,-1
 450 -124 l 5,3,-1
 450 896 l 261,0,-1
EndSplineSet
Validated: 1
EndChar

StartChar: uni250F
Encoding: 9487 9487 106
Width: 1024
VWidth: 0
Flags: W
LayerCount: 2
Fore
SplineSet
450 450 m 1,0,-1
 1024 450 l 1,1,-1
 1024 326 l 25,2,-1
 574 326 l 29,3,-1
 574 -124 l 1,4,-1
 450 -124 l 1,5,-1
 450 450 l 1,0,-1
EndSplineSet
Validated: 1
EndChar

StartChar: uni2513
Encoding: 9491 9491 107
Width: 1024
VWidth: 0
Flags: W
LayerCount: 2
Fore
SplineSet
450 326 m 1,0,-1
 0 326 l 1,1,-1
 0 450 l 25,2,-1
 574 450 l 29,3,-1
 574 -124 l 1,4,-1
 450 -124 l 1,5,-1
 450 326 l 1,0,-1
EndSplineSet
Validated: 1
EndChar

StartChar: uni2517
Encoding: 9495 9495 108
Width: 1024
VWidth: 0
Flags: W
LayerCount: 2
Fore
SplineSet
574 450 m 17,0,-1
 1024 450 l 1,1,-1
 1024 326 l 1,2,-1
 450 326 l 25,3,-1
 450 896 l 29,4,-1
 574 896 l 1,5,-1
 574 450 l 17,0,-1
EndSplineSet
Validated: 1
EndChar

StartChar: uni251B
Encoding: 9499 9499 109
Width: 1024
VWidth: 0
Flags: W
LayerCount: 2
Fore
SplineSet
574 326 m 21,0,-1
 0 326 l 5,1,-1
 0 450 l 5,2,-1
 450 450 l 29,3,-1
 450 896 l 29,4,-1
 574 896 l 5,5,-1
 574 326 l 21,0,-1
EndSplineSet
Validated: 1
EndChar

StartChar: uni2523
Encoding: 9507 9507 110
Width: 1024
VWidth: 0
Flags: W
LayerCount: 2
Fore
SplineSet
574 326 m 17,0,-1
 574 -120 l 5,1,-1
 450 -120 l 1,2,-1
 450 896 l 1,3,-1
 574 896 l 1,4,-1
 574 450 l 1,5,-1
 1020 450 l 1,6,-1
 1020 326 l 5,7,-1
 574 326 l 17,0,-1
EndSplineSet
Validated: 1
EndChar

StartChar: uni252B
Encoding: 9515 9515 111
Width: 1024
VWidth: 0
Flags: W
LayerCount: 2
Fore
SplineSet
450 450 m 21,0,-1
 446 896 l 5,1,-1
 574 896 l 5,2,-1
 574 -120 l 5,3,-1
 450 -120 l 5,4,-1
 450 326 l 5,5,-1
 4 326 l 5,6,-1
 4 450 l 5,7,-1
 450 450 l 21,0,-1
EndSplineSet
Validated: 1
EndChar

StartChar: uni2533
Encoding: 9523 9523 112
Width: 1024
VWidth: 0
Flags: W
LayerCount: 2
Fore
SplineSet
574 326 m 13,0,-1
 573 -124 l 5,1,-1
 450 -124 l 5,2,-1
 450 326 l 5,3,-1
 0 326 l 5,4,-1
 0 450 l 5,5,-1
 1024 450 l 5,6,-1
 1024 326 l 5,7,-1
 574 326 l 13,0,-1
EndSplineSet
Validated: 1
EndChar

StartChar: uni253B
Encoding: 9531 9531 113
Width: 1024
VWidth: 0
Flags: W
LayerCount: 2
Fore
SplineSet
574 450 m 21,0,-1
 1024 450 l 5,1,-1
 1024 326 l 5,2,-1
 0 326 l 5,3,-1
 0 450 l 5,4,-1
 450 450 l 5,5,-1
 450 896 l 5,6,-1
 573 896 l 5,7,-1
 574 450 l 21,0,-1
EndSplineSet
Validated: 1
EndChar

StartChar: uni254B
Encoding: 9547 9547 114
Width: 1024
VWidth: 0
Flags: W
LayerCount: 2
Fore
SplineSet
0 450 m 21,0,-1
 450 450 l 5,1,-1
 450 896 l 5,2,-1
 574 896 l 5,3,-1
 574 450 l 21,4,-1
 1024 450 l 5,5,-1
 1024 326 l 5,6,-1
 574 326 l 5,7,-1
 574 -124 l 21,8,-1
 450 -124 l 5,9,-1
 450 326 l 29,10,-1
 0 326 l 5,11,-1
 0 450 l 21,0,-1
EndSplineSet
Validated: 1
EndChar

StartChar: uni2589
Encoding: 9609 9609 115
Width: 1024
VWidth: 0
LayerCount: 2
Fore
SplineSet
4 896 m 25,0,-1
 4 -120 l 29,1,-1
 896 -120 l 25,2,-1
 896 896 l 25,3,-1
 4 896 l 25,0,-1
EndSplineSet
Validated: 9
EndChar

StartChar: SF430000
Encoding: 9552 9552 116
Width: 1024
VWidth: 0
Flags: W
LayerCount: 2
Fore
SplineSet
0 574 m 5,0,-1
 1024 574 l 5,1,-1
 1024 450 l 5,2,-1
 0 450 l 5,3,-1
 0 574 l 5,0,-1
0 326 m 5,4,-1
 1024 326 l 5,5,-1
 1024 202 l 5,6,-1
 0 202 l 5,7,-1
 0 326 l 5,4,-1
EndSplineSet
Validated: 1
EndChar

StartChar: SF240000
Encoding: 9553 9553 117
Width: 1024
VWidth: 0
Flags: W
LayerCount: 2
Fore
SplineSet
698 896 m 5,0,-1
 698 -120 l 5,1,-1
 574 -120 l 5,2,-1
 574 896 l 5,3,-1
 698 896 l 5,0,-1
450 896 m 5,4,-1
 450 -120 l 5,5,-1
 326 -120 l 5,6,-1
 326 896 l 5,7,-1
 450 896 l 5,4,-1
EndSplineSet
Validated: 1
EndChar

StartChar: SF390000
Encoding: 9556 9556 118
Width: 1024
VWidth: 0
Flags: W
LayerCount: 2
Fore
SplineSet
574 -120 m 29,0,-1
 574 326 l 29,1,-1
 1020 326 l 29,2,-1
 1020 202 l 5,3,-1
 698 202 l 29,4,-1
 698 -120 l 5,5,-1
 574 -120 l 29,0,-1
326 -120 m 29,6,-1
 326 574 l 29,7,-1
 1020 574 l 29,8,-1
 1020 450 l 29,9,-1
 450 450 l 29,10,-1
 450 -120 l 29,11,-1
 326 -120 l 29,6,-1
EndSplineSet
Validated: 1
EndChar

StartChar: SF250000
Encoding: 9559 9559 119
Width: 1024
VWidth: 0
Flags: W
LayerCount: 2
Fore
SplineSet
0 326 m 5,0,-1
 450 326 l 5,1,-1
 450 -120 l 5,2,-1
 326 -120 l 5,3,-1
 326 202 l 5,4,-1
 0 202 l 5,5,-1
 0 326 l 5,0,-1
0 574 m 5,6,-1
 698 574 l 5,7,-1
 698 -120 l 5,8,-1
 574 -120 l 5,9,-1
 574 450 l 5,10,-1
 0 450 l 5,11,-1
 0 574 l 5,6,-1
EndSplineSet
Validated: 1
EndChar

StartChar: SF380000
Encoding: 9562 9562 120
Width: 1024
VWidth: 0
Flags: W
LayerCount: 2
Fore
SplineSet
574 896 m 5,0,-1
 698 896 l 5,1,-1
 698 574 l 5,2,-1
 1024 574 l 5,3,-1
 1024 450 l 5,4,-1
 574 450 l 5,5,-1
 574 896 l 5,0,-1
450 896 m 5,6,-1
 450 326 l 5,7,-1
 1024 326 l 5,8,-1
 1024 202 l 5,9,-1
 326 202 l 5,10,-1
 326 896 l 5,11,-1
 450 896 l 5,6,-1
EndSplineSet
Validated: 1
EndChar

StartChar: SF260000
Encoding: 9565 9565 121
Width: 1024
VWidth: 0
Flags: W
LayerCount: 2
Fore
SplineSet
450 900 m 5,0,-1
 450 454 l 5,1,-1
 0 454 l 5,2,-1
 0 578 l 5,3,-1
 326 578 l 5,4,-1
 326 900 l 5,5,-1
 450 900 l 5,0,-1
574 900 m 5,6,-1
 698 900 l 5,7,-1
 698 206 l 5,8,-1
 0 206 l 5,9,-1
 0 330 l 5,10,-1
 574 330 l 5,11,-1
 574 900 l 5,6,-1
EndSplineSet
Validated: 1
EndChar

StartChar: SF420000
Encoding: 9568 9568 122
Width: 1024
VWidth: 0
Flags: W
LayerCount: 2
Fore
SplineSet
574 326 m 5,0,-1
 1024 326 l 5,1,-1
 1024 202 l 5,2,-1
 698 202 l 5,3,-1
 698 -120 l 5,4,-1
 574 -120 l 5,5,-1
 574 326 l 5,0,-1
574 896 m 5,6,-1
 698 896 l 5,7,-1
 698 574 l 5,8,-1
 1024 572 l 5,9,-1
 1024 450 l 5,10,-1
 574 450 l 5,11,-1
 574 896 l 5,6,-1
326 896 m 5,12,-1
 450 896 l 5,13,-1
 450 -120 l 5,14,-1
 326 -120 l 5,15,-1
 326 896 l 5,12,-1
EndSplineSet
Validated: 1
EndChar

StartChar: SF230000
Encoding: 9571 9571 123
Width: 1024
VWidth: 0
Flags: W
LayerCount: 2
Fore
SplineSet
450 326 m 5,0,-1
 450 -120 l 5,1,-1
 326 -120 l 5,2,-1
 326 202 l 5,3,-1
 0 202 l 5,4,-1
 0 326 l 5,5,-1
 450 326 l 5,0,-1
450 896 m 5,6,-1
 450 450 l 5,7,-1
 0 450 l 5,8,-1
 0 572 l 5,9,-1
 326 574 l 5,10,-1
 326 896 l 5,11,-1
 450 896 l 5,6,-1
698 896 m 5,12,-1
 698 -120 l 5,13,-1
 574 -120 l 5,14,-1
 574 896 l 5,15,-1
 698 896 l 5,12,-1
EndSplineSet
Validated: 1
EndChar

StartChar: SF440000
Encoding: 9580 9580 124
Width: 1024
VWidth: 0
Flags: W
LayerCount: 2
Fore
SplineSet
450 326 m 5,0,-1
 450 -120 l 5,1,-1
 326 -120 l 5,2,-1
 326 202 l 5,3,-1
 0 202 l 5,4,-1
 0 326 l 5,5,-1
 450 326 l 5,0,-1
450 896 m 5,6,-1
 450 450 l 5,7,-1
 0 450 l 5,8,-1
 0 572 l 5,9,-1
 326 574 l 5,10,-1
 326 896 l 5,11,-1
 450 896 l 5,6,-1
574 326 m 5,12,-1
 1024 326 l 5,13,-1
 1024 202 l 5,14,-1
 698 202 l 5,15,-1
 698 -120 l 5,16,-1
 574 -120 l 5,17,-1
 574 326 l 5,12,-1
574 896 m 5,18,-1
 698 896 l 5,19,-1
 698 574 l 5,20,-1
 1024 572 l 5,21,-1
 1024 450 l 5,22,-1
 574 450 l 5,23,-1
 574 896 l 5,18,-1
EndSplineSet
Validated: 1
EndChar

StartChar: SF410000
Encoding: 9574 9574 125
Width: 1024
VWidth: 0
Flags: W
LayerCount: 2
Fore
SplineSet
574 327 m 5,0,-1
 1020 327 l 5,1,-1
 1019 203 l 5,2,-1
 698 203 l 5,3,-1
 698 -123 l 5,4,5
 636 -123 636 -123 574 -123 c 5,6,-1
 574 327 l 5,0,-1
4 327 m 5,7,-1
 450 327 l 5,8,-1
 450 -123 l 5,9,-1
 328 -123 l 5,10,-1
 326 203 l 5,11,-1
 4 203 l 5,12,-1
 4 327 l 5,7,-1
4 575 m 5,13,-1
 1020 575 l 5,14,-1
 1020 451 l 5,15,-1
 4 451 l 5,16,-1
 4 575 l 5,13,-1
EndSplineSet
Validated: 1
EndChar

StartChar: SF400000
Encoding: 9577 9577 126
Width: 1024
VWidth: 0
Flags: W
LayerCount: 2
Fore
SplineSet
574 447 m 5,0,-1
 574 897 l 5,1,2
 636 897 636 897 698 897 c 5,3,-1
 698 571 l 5,4,-1
 1019 571 l 5,5,-1
 1020 447 l 5,6,-1
 574 447 l 5,0,-1
4 447 m 5,7,-1
 4 571 l 5,8,-1
 326 571 l 5,9,-1
 328 897 l 5,10,-1
 450 897 l 5,11,-1
 450 447 l 5,12,-1
 4 447 l 5,7,-1
4 199 m 5,13,-1
 4 323 l 5,14,-1
 1020 323 l 5,15,-1
 1020 199 l 5,16,-1
 4 199 l 5,13,-1
EndSplineSet
Validated: 1
EndChar
